<svg width="311" height="286" viewBox="0 0 311 286" fill="none" xmlns="http://www.w3.org/2000/svg">
<mask id="mask0_223_2140" style="mask-type:alpha" maskUnits="userSpaceOnUse" x="0" y="0" width="311" height="272">
<path d="M0 0H311V271.331H0V0Z" fill="white"/>
</mask>
<g mask="url(#mask0_223_2140)">
<path fill-rule="evenodd" clip-rule="evenodd" d="M79.0106 266.28C40.9147 253.479 7.86998 221.666 1.10296 182.167C-5.66405 142.668 19.3319 98.1448 58.6072 89.5822C77.1781 85.5315 97.2232 89.1496 114.965 82.3501C148.427 69.5266 159.799 26.1423 190.714 8.04785C220.5 -9.38341 261.335 3.18905 283.526 29.5727C305.715 55.9563 312.189 92.3615 310.829 126.761C308.831 177.3 287.283 231.803 241.288 253.173C202.529 271.18 120.581 276.284 79.0106 266.28Z" fill="#FDCDAA"/>
</g>
<path fill-rule="evenodd" clip-rule="evenodd" d="M33.0083 257.566C41.4021 271.453 58.6957 276.667 74.4567 276.335C90.2157 276.004 105.626 271.311 121.362 270.359C146.303 268.855 170.743 276.75 195.259 281.751C219.777 286.75 246.573 288.534 268.438 275.953C273.791 272.875 278.956 268.668 281.123 262.713C283.291 256.76 281.331 248.857 275.691 246.397C273.505 245.445 271.072 245.386 268.703 245.339C216.179 244.326 163.655 243.312 111.132 242.297C84.3953 241.781 54.9223 242.254 34.8654 260.667" fill="#E6CCA9"/>
<path fill-rule="evenodd" clip-rule="evenodd" d="M259.26 101.029C256.03 104.112 254.8 108.912 257.883 112.616C260.784 116.102 266.398 116.841 270.022 114.063C278.772 107.353 269.651 94.9727 260.21 97.5349C258.463 98.0089 258.898 100.485 260.626 100.583C263.386 100.739 266.341 100.845 268.547 102.768C270.914 104.831 270.968 108.323 269.024 110.697C263.877 116.984 254.94 107.726 260.344 102.106C261.027 101.397 259.974 100.348 259.26 101.029Z" fill="#3A3A3A" fill-opacity="0.5"/>
<path fill-rule="evenodd" clip-rule="evenodd" d="M48.7282 70.5322C45.479 69.0734 41.4814 69.4105 38.5263 71.3904C35.5712 73.3703 33.7595 76.9275 33.9034 80.4684C34.0165 83.235 35.127 86.3836 33.3564 88.5228C31.9869 90.1738 29.5438 90.329 27.582 91.2117C23.8516 92.8872 21.9947 97.7889 23.6912 101.491C24.6084 103.496 26.4283 105.341 26.0808 107.515C25.8567 108.922 24.7318 110.036 23.4877 110.745C22.2415 111.452 20.8472 111.856 19.5578 112.482C14.861 114.766 12.0087 120.072 12.1424 125.266C12.2781 130.46 15.155 135.388 19.2802 138.582C23.4075 141.775 28.6678 143.326 33.8932 143.52C39.1309 143.714 44.6092 142.495 48.6048 139.127C51.6051 136.598 53.5628 133.055 55.0064 129.42C57.7538 122.508 58.8664 114.962 58.233 107.56C57.5729 99.877 55.0743 92.4315 54.5273 84.7408C54.3443 82.1643 54.3813 79.5531 53.8034 77.0338C53.2256 74.5145 51.928 72.0238 49.705 70.6855" fill="#3A3A3A"/>
<path fill-rule="evenodd" clip-rule="evenodd" d="M47.5373 71.5269C50.5129 65.3809 56.4293 60.7203 63.1332 59.243C67.2502 58.3358 71.7681 58.6423 75.3854 60.7959C79.0047 62.9494 81.5053 67.1503 80.9542 71.3062C80.6128 73.8745 79.2103 76.167 78.3199 78.6026C77.4295 81.0401 77.1374 84.011 78.7929 86.0133C80.2776 87.8114 82.8234 88.2547 84.8511 89.4173C87.7465 91.0805 89.5665 94.4355 89.3752 97.7537C89.184 101.072 86.9877 104.198 83.9195 105.52C86.9671 105.871 89.8317 107.565 91.5941 110.058C93.3585 112.553 93.9919 115.804 93.2927 118.772C92.2892 123.026 88.8097 126.281 85.067 128.58C79.8684 131.773 73.8389 133.625 67.7314 133.898C61.2495 134.191 54.0706 132.284 50.5438 126.872C48.2303 123.319 47.8766 118.885 47.6175 114.659C46.834 101.906 46.2973 89.1374 45.7606 76.3714C45.6742 74.3179 45.5899 72.2318 46.0772 70.2335" fill="#3A3A3A"/>
<path fill-rule="evenodd" clip-rule="evenodd" d="M69.3446 129.149L127.457 150.795L121.909 127.478L137.021 123.661C137.021 123.661 153.277 169.243 141.988 170.463C122.223 172.6 92.319 164.824 92.319 164.824L69.3446 129.149Z" fill="#3A3A3A" fill-opacity="0.5"/>
<path fill-rule="evenodd" clip-rule="evenodd" d="M64.2646 228.639C64.2646 228.639 134.469 152.502 181.863 169.124C229.258 185.747 249.269 263.294 249.269 263.294L211.519 262.685C211.519 262.685 181.707 204.116 167.16 206.384C152.611 208.656 107.682 264.403 107.682 264.403L64.2646 228.639Z" fill="#3A3A3A" fill-opacity="0.5"/>
<path fill-rule="evenodd" clip-rule="evenodd" d="M86.4757 182.417L89.3896 227.088C74.2564 245.575 21.5729 221.673 21.5729 221.673L20.9581 202.996L19.7345 158.511C20.9478 140.796 37.5082 132.102 37.5082 132.102C44.354 128.711 54.7944 126.786 64.2005 127.25C74.0199 127.73 76.4465 132.403 80.4915 141.305C83.7592 148.497 92.6285 160.215 86.4757 182.417Z" fill="#3A3A3A" fill-opacity="0.5"/>
<path fill-rule="evenodd" clip-rule="evenodd" d="M31.4193 230.089C31.4193 230.089 23.3622 262.675 47.92 267.811C72.4778 272.946 162.8 260.932 186.325 262.987C209.851 265.039 276.755 268.919 276.755 268.919L281.653 230.222C281.653 230.222 177.538 225.263 165.771 228.171C154.005 231.074 31.4193 230.089 31.4193 230.089Z" fill="#3A3A3A" fill-opacity="0.5"/>
<path fill-rule="evenodd" clip-rule="evenodd" d="M43.1935 173.12C43.1935 173.12 35.8295 216.239 46.2144 215.176C80.3736 211.686 100.714 211.216 100.714 211.216L106.375 222.895C106.507 224.886 41.6861 243.322 31.2704 237.227C23.9166 232.924 12.2012 221.33 17.5191 186.685L18.7755 175.072L43.1935 173.12Z" fill="#3A3A3A"/>
<path fill-rule="evenodd" clip-rule="evenodd" d="M74.0155 235.022L73.9456 232.131L116.82 226.115L128.2 186.575L175.695 185.431L162.88 228.228L74.0155 235.022Z" fill="#3A3A3A" fill-opacity="0.5"/>
<path fill-rule="evenodd" clip-rule="evenodd" d="M151.084 205.315C151.132 207.244 149.595 208.848 147.654 208.895C145.713 208.94 144.101 207.414 144.053 205.485C144.006 203.558 145.542 201.954 147.484 201.907C149.425 201.862 151.037 203.386 151.084 205.315Z" fill="#3A3A3A"/>
<path fill-rule="evenodd" clip-rule="evenodd" d="M152.492 205.281C152.558 207.982 150.407 210.226 147.688 210.291C144.97 210.357 142.712 208.219 142.646 205.518C142.58 202.817 144.731 200.574 147.45 200.51C150.168 200.445 152.426 202.582 152.492 205.281Z" fill="#3A3A3A"/>
<path fill-rule="evenodd" clip-rule="evenodd" d="M24.4044 144.522C24.4044 144.522 16.4358 152.123 14.6549 180.888L45.493 177.498C45.493 177.498 50.632 128.507 24.4044 144.522Z" fill="#3A3A3A"/>
<path fill-rule="evenodd" clip-rule="evenodd" d="M250.775 58.0244C250.775 58.0244 261.707 82.4164 264.754 81.1374C267.804 79.8604 296.037 62.4562 296.037 62.4562C296.037 62.4562 284.465 40.6182 282.057 39.3432C279.649 38.0703 250.775 58.0244 250.775 58.0244Z" fill="#3A3A3A" fill-opacity="0.5"/>
<path fill-rule="evenodd" clip-rule="evenodd" d="M282.057 39.3441C282.194 39.3951 281.39 41.8981 279.978 45.8987C278.567 49.9014 276.545 55.4038 274.255 61.4579C274.197 61.607 274.139 61.7562 274.088 61.8951L273.934 62.3017L273.5 62.2323C267.176 61.2086 261.484 60.2279 257.377 59.4678C253.271 58.7077 250.75 58.1683 250.774 58.0253C250.797 57.8822 253.359 58.1622 257.497 58.7322C261.634 59.3043 267.347 60.1645 273.673 61.182L273.086 61.5212C273.138 61.3823 273.193 61.2331 273.251 61.084C275.544 55.0299 277.676 49.5684 279.27 45.6351C280.864 41.6999 281.919 39.293 282.057 39.3441Z" fill="#3A3A3A"/>
<path fill-rule="evenodd" clip-rule="evenodd" d="M261.162 78.2729C260.874 78.2096 261.724 74.2028 263.06 69.3277C264.399 64.4505 265.711 60.5704 265.993 60.6603C266.274 60.7502 265.425 64.757 264.095 69.6076C262.764 74.4562 261.45 78.3363 261.162 78.2729Z" fill="#3A3A3A"/>
<path fill-rule="evenodd" clip-rule="evenodd" d="M294.173 57.6043C294.128 57.8944 290.188 57.5164 285.374 56.7564C280.56 56.0004 276.696 55.1504 276.741 54.8602C276.788 54.5701 280.726 54.9481 285.542 55.7061C290.355 56.4642 294.219 57.3142 294.173 57.6043Z" fill="#3A3A3A"/>
<path fill-rule="evenodd" clip-rule="evenodd" d="M39.8487 84.2292L40.5459 93.3604C40.5459 93.3604 32.7315 94.4086 34.9606 101.49C37.1877 108.572 42.5324 105.473 42.5324 105.473C42.5324 105.473 43.8691 123.621 62.5804 117.867C77.471 113.288 76.56 94.1286 74.6701 77.7951C73.9381 71.4672 67.9127 67.1172 61.6201 68.335L50.3715 70.513C43.8711 71.7696 39.347 77.6664 39.8487 84.2292Z" fill="#3A3A3A"/>
<path fill-rule="evenodd" clip-rule="evenodd" d="M40.5465 100.94L45.5889 127.651C46.724 133.67 52.6959 137.52 58.6903 136.1C64.2447 134.782 67.8023 129.39 66.805 123.804L64.0679 108.494L40.5465 100.94Z" fill="#3A3A3A"/>
<path fill-rule="evenodd" clip-rule="evenodd" d="M61.2423 101.242C61.3143 101.19 61.4665 101.479 61.8078 101.517C62.141 101.552 62.6489 101.209 62.7723 100.483C62.943 99.7643 62.8484 98.8182 62.7455 97.7231C62.6571 96.5462 62.5708 95.3815 62.4803 94.1638C62.1615 89.1088 62.141 84.9958 62.4371 84.9774C62.7332 84.959 63.2309 89.0414 63.5496 94.0963C63.6113 95.3182 63.6709 96.4828 63.7306 97.6618C63.7738 98.7426 63.8149 99.8112 63.4982 100.696C63.2514 101.62 62.2952 102.192 61.6988 101.918C61.1271 101.63 61.2032 101.235 61.2423 101.242Z" fill="#3A3A3A"/>
<path fill-rule="evenodd" clip-rule="evenodd" d="M67.3122 116.003C67.3965 116.101 66.6521 116.916 65.1139 117.795C63.5921 118.671 61.2149 119.536 58.4778 119.591C55.7407 119.65 53.3265 118.888 51.7698 118.075C50.1966 117.262 49.4193 116.479 49.4974 116.377C49.6352 116.081 53.2833 118.653 58.4552 118.526C63.6271 118.436 67.1641 115.713 67.3122 116.003Z" fill="#3A3A3A"/>
<path fill-rule="evenodd" clip-rule="evenodd" d="M63.6572 104.989C63.7621 105.064 63.5215 105.663 62.6927 106.241C61.8928 106.813 60.4204 107.279 58.8739 106.795C57.3337 106.294 56.4104 105.062 56.0957 104.134C55.7626 103.184 55.9168 102.557 56.0464 102.559C56.2088 102.545 56.3363 103.099 56.7805 103.814C57.2103 104.523 58.037 105.405 59.2009 105.783C60.369 106.151 61.5576 105.914 62.3246 105.585C63.104 105.26 63.5338 104.884 63.6572 104.989Z" fill="#3A3A3A"/>
<path fill-rule="evenodd" clip-rule="evenodd" d="M39.9582 102.376C39.9602 102.5 39.5016 102.719 38.6893 102.482C38.3007 102.361 37.7866 102.016 37.5665 101.417C37.4555 101.125 37.4061 100.768 37.5172 100.394C37.6056 100.028 37.9573 99.6337 38.3459 99.507C38.8765 99.2925 39.6189 99.4191 39.9623 99.9994L39.0533 100.469C38.459 98.9737 38.1711 97.8275 38.3932 97.7294C38.6133 97.6313 39.2754 98.6141 39.9911 100.057L39.0821 100.527C39.0616 100.496 38.9114 100.431 38.7264 100.502C38.5269 100.561 38.4364 100.798 38.5043 101.111C38.5701 101.409 38.7695 101.632 39.0122 101.802C39.5037 102.124 39.9705 102.218 39.9582 102.376Z" fill="#3A3A3A"/>
<path fill-rule="evenodd" clip-rule="evenodd" d="M68.7361 89.5626C68.4482 89.628 68.0657 89.0253 67.8807 88.2182C67.6976 87.4111 67.784 86.7062 68.0719 86.6408C68.3598 86.5755 68.7423 87.1782 68.9253 87.9853C69.1104 88.7924 69.024 89.4973 68.7361 89.5626Z" fill="#3A3A3A"/>
<path fill-rule="evenodd" clip-rule="evenodd" d="M52.8941 91.0262C52.6082 91.1058 52.1949 90.5133 51.9687 89.7062C51.7425 88.8971 51.7918 88.1799 52.0777 88.1002C52.3615 88.0226 52.7748 88.6131 53.001 89.4222C53.2272 90.2293 53.1799 90.9465 52.8941 91.0262Z" fill="#3A3A3A"/>
<path fill-rule="evenodd" clip-rule="evenodd" d="M54.3652 84.3777C54.2748 84.6658 53.4316 84.6556 52.498 84.9151C51.5562 85.1439 50.8261 85.5648 50.6061 85.3564C50.3778 85.1807 50.9619 84.2122 52.2266 83.8853C53.4871 83.5522 54.4763 84.1121 54.3652 84.3777Z" fill="#3A3A3A"/>
<path fill-rule="evenodd" clip-rule="evenodd" d="M70.5414 81.8298C70.4222 82.1076 69.4947 81.9707 68.4089 82.077C67.3211 82.1587 66.4306 82.455 66.2661 82.2016C66.0893 81.9748 66.9324 81.1351 68.3164 81.0186C69.7004 80.894 70.6751 81.5764 70.5414 81.8298Z" fill="#3A3A3A"/>
<path fill-rule="evenodd" clip-rule="evenodd" d="M40.5465 93.3608C45.7698 88.3018 47.3039 79.8735 48.7208 72.7651C53.5575 76.2651 60.21 77.1253 65.787 74.9738C67.537 77.017 69.5934 78.8028 71.8658 80.2494C72.5136 80.6622 73.2785 81.0626 74.0147 80.842C74.8908 80.5804 75.2815 79.5813 75.4892 78.6945C76.1575 75.8606 76.1822 72.8264 75.1869 70.0864C74.1916 67.3505 72.1043 64.9436 69.3713 63.8934C66.4512 62.7696 63.1651 63.258 60.1318 64.0385C55.5645 65.2154 51.1617 67.0236 47.09 69.3938C43.0923 71.719 39.255 74.7981 37.5585 79.0787C35.864 83.3613 35.8722 91.6854 39.9583 93.8491" fill="#3A3A3A"/>
<path fill-rule="evenodd" clip-rule="evenodd" d="M61.864 105.979C62.1149 107.42 60.879 108.821 59.1886 108.472C57.4982 108.106 56.945 106.329 57.7635 105.113C58.5799 103.881 59.6698 103.151 60.3011 103.266C60.9242 103.417 61.6234 104.525 61.864 105.979Z" fill="#3A3A3A"/>
<path fill-rule="evenodd" clip-rule="evenodd" d="M55.3552 97.5012C55.6143 98.9416 53.8232 100.466 51.3246 100.576C48.8261 100.693 46.9013 99.3339 47.0308 97.8771C47.1563 96.408 48.97 95.364 51.082 95.2618C53.1939 95.1719 55.0961 96.0505 55.3552 97.5012Z" fill="#3A3A3A"/>
<path fill-rule="evenodd" clip-rule="evenodd" d="M75.1392 95.8968C75.4333 97.3311 73.8642 98.8574 71.6022 98.9718C69.3381 99.0883 67.6209 97.7295 67.7649 96.2727C67.9068 94.8057 69.5026 93.7575 71.3266 93.6574C73.1527 93.5716 74.8472 94.4501 75.1392 95.8968Z" fill="#3A3A3A"/>
<path fill-rule="evenodd" clip-rule="evenodd" d="M40.3318 117.532C40.0316 117.526 39.865 114.596 39.6758 110.998C39.4928 107.398 39.355 104.468 39.6532 104.431C39.9411 104.392 40.5601 107.298 40.7452 110.943C40.9364 114.588 40.6218 117.541 40.3318 117.532Z" fill="#3A3A3A"/>
<path fill-rule="evenodd" clip-rule="evenodd" d="M71.3778 128.954C66.3211 126.958 105.216 141.306 105.216 141.306L101.27 167.741L86.4761 162.919L71.3778 128.954Z" fill="#3A3A3A" fill-opacity="0.5"/>
<path fill-rule="evenodd" clip-rule="evenodd" d="M48.233 69.1544C49.4565 67.3196 49.8596 64.9658 49.3147 62.8327C48.8664 61.0755 47.5317 59.3326 45.7097 59.2407C44.6754 59.1876 43.6718 59.6881 42.911 60.389C41.0314 62.1175 40.5481 65.1619 41.8005 67.3809C43.0528 69.5998 45.9174 70.7788 48.3831 70.0902" fill="#3A3A3A"/>
<path fill-rule="evenodd" clip-rule="evenodd" d="M280.61 238.456C280.61 238.456 293.261 220.434 291.719 227.257C290.176 234.079 277.326 264.403 277.326 264.403L280.61 238.456Z" fill="#3A3A3A" fill-opacity="0.5"/>
<path fill-rule="evenodd" clip-rule="evenodd" d="M97.1203 211.219C97.1203 211.219 113.837 206.009 113.263 207.723C112.69 209.436 109.845 209.499 107.001 212.263C107.001 212.263 125.688 212.464 124.789 213.994C123.891 215.522 111.727 215.909 111.653 216.168C111.581 216.43 124.958 216.754 124.658 218.168C124.356 219.584 111.925 219.239 111.925 219.239C111.925 219.239 123.449 220.457 123.212 221.981C122.976 223.507 112.352 222.408 112.352 222.408C112.352 222.408 121.244 223.417 121.012 224.799C120.872 225.64 94.9775 225.83 94.9238 226.45C94.8953 226.774 97.1203 211.219 97.1203 211.219Z" fill="#3A3A3A"/>
<path fill-rule="evenodd" clip-rule="evenodd" d="M122.999 128.955C122.999 128.955 112.849 114.856 114.658 114.864C116.468 114.871 117.412 117.525 120.926 119.341C120.926 119.341 115.319 101.712 117.052 102.082C118.79 102.452 122.931 113.767 123.203 113.755C123.472 113.743 119.629 101.065 121.07 100.909C122.51 100.754 126.041 112.547 126.041 112.547C126.041 112.547 123.622 101.336 125.148 101.085C126.676 100.834 128.926 111.162 128.926 111.162C128.926 111.162 127.127 102.489 128.515 102.276C129.36 102.147 137.022 123.663 137.022 123.663C136.821 123.663 122.999 128.955 122.999 128.955Z" fill="#3A3A3A" fill-opacity="0.5"/>
<path fill-rule="evenodd" clip-rule="evenodd" d="M29.3859 167.741C29.4969 167.731 29.8753 168.399 29.8959 169.731C29.8917 170.377 29.6265 171.314 28.7998 171.899C28.405 172.191 27.8168 172.399 27.2081 172.267C26.6056 172.142 26.1511 171.735 25.8241 171.38C25.162 170.614 24.7322 170.16 24.0536 170.08C23.4037 169.978 22.8177 170.195 22.4413 170.536C21.6517 171.253 21.6763 172.081 21.5159 172.07C21.409 172.138 20.9998 171.186 21.8881 170.021C22.3221 169.465 23.196 169.012 24.1646 169.106C24.6438 169.147 25.1558 169.316 25.5877 169.643C26.0092 169.96 26.3095 170.342 26.6056 170.657C27.6708 172.099 29.0651 170.691 29.1412 169.653C29.3098 168.558 29.2111 167.753 29.3859 167.741Z" fill="#3A3A3A"/>
<path fill-rule="evenodd" clip-rule="evenodd" d="M38.5172 159.91C38.4493 159.822 38.8277 159.152 39.9629 158.443C40.5201 158.11 41.464 157.849 42.3956 158.243C42.8521 158.427 43.3374 158.817 43.541 159.403C43.7467 159.98 43.6336 160.578 43.4999 161.04C43.1832 161.998 43.0187 162.601 43.3025 163.22C43.5513 163.823 44.0428 164.207 44.5343 164.348C45.5584 164.644 46.2576 164.193 46.3337 164.336C46.4468 164.391 45.8401 165.233 44.378 165.086C43.6747 165.008 42.8295 164.503 42.4059 163.631C42.192 163.202 42.0727 162.679 42.1283 162.143C42.1817 161.62 42.3524 161.167 42.4676 160.752C43.1565 159.099 41.2193 158.648 40.2857 159.124C39.2596 159.551 38.618 160.053 38.5172 159.91Z" fill="#3A3A3A"/>
<path fill-rule="evenodd" clip-rule="evenodd" d="M37.9007 140.402C37.8328 140.312 38.2112 139.644 39.3443 138.935C39.9016 138.602 40.8475 138.338 41.7791 138.735C42.2356 138.918 42.7209 139.309 42.9225 139.895C43.1302 140.471 43.0171 141.07 42.8834 141.532C42.5667 142.49 42.4001 143.093 42.686 143.71C42.9348 144.315 43.4263 144.699 43.9157 144.84C44.9419 145.136 45.641 144.684 45.7171 144.827C45.8302 144.883 45.2236 145.724 43.7594 145.577C43.0561 145.498 42.213 144.993 41.7894 144.123C41.5755 143.693 41.4562 143.17 41.5097 142.635C41.5632 142.112 41.7359 141.658 41.8511 141.244C42.5379 139.591 40.6028 139.139 39.6692 139.613C38.641 140.042 38.0014 140.545 37.9007 140.402Z" fill="#3A3A3A"/>
<path fill-rule="evenodd" clip-rule="evenodd" d="M57.3715 165.809C57.2872 165.883 56.586 165.566 55.7757 164.508C55.3932 163.985 55.0478 163.073 55.3624 162.115C55.5063 161.647 55.8559 161.132 56.4256 160.881C56.9849 160.626 57.5936 160.687 58.0686 160.779C59.0578 161.008 59.6768 161.12 60.2711 160.785C60.8551 160.485 61.1965 159.964 61.2972 159.467C61.5049 158.425 60.9908 157.773 61.1265 157.686C61.1738 157.569 62.0704 158.096 62.0478 159.557C62.0314 160.26 61.5995 161.139 60.7626 161.635C60.3513 161.884 59.8392 162.048 59.2963 162.04C58.7658 162.034 58.2969 161.903 57.8712 161.825C56.1541 161.288 55.8703 163.245 56.4276 164.126C56.9458 165.107 57.5052 165.697 57.3715 165.809Z" fill="#3A3A3A"/>
<path fill-rule="evenodd" clip-rule="evenodd" d="M70.6478 186.212C70.7074 186.306 70.2817 186.943 69.0993 187.571C68.5173 187.863 67.557 188.053 66.6562 187.591C66.2141 187.374 65.7596 186.949 65.5992 186.349C65.4368 185.76 65.5951 185.172 65.7638 184.722C66.1483 183.787 66.3581 183.198 66.1216 182.563C65.9159 181.942 65.4553 181.523 64.9762 181.345C63.9767 180.975 63.2467 181.376 63.1809 181.228C63.0719 181.163 63.7402 180.368 65.188 180.624C65.883 180.752 66.6871 181.316 67.0449 182.217C67.2259 182.661 67.3081 183.19 67.2135 183.721C67.121 184.238 66.9154 184.679 66.7694 185.084C65.9612 186.68 67.8593 187.276 68.8258 186.868C69.8807 186.516 70.5573 186.063 70.6478 186.212Z" fill="#3A3A3A"/>
<path fill-rule="evenodd" clip-rule="evenodd" d="M86.2778 154.033C86.3375 154.127 85.9118 154.767 84.7293 155.392C84.1474 155.682 83.187 155.874 82.2863 155.412C81.8442 155.196 81.3897 154.771 81.2293 154.172C81.0669 153.581 81.2252 152.993 81.3938 152.544C81.7784 151.61 81.9881 151.021 81.7516 150.384C81.546 149.763 81.0854 149.344 80.6062 149.166C79.6068 148.796 78.8768 149.195 78.811 149.05C78.702 148.984 79.3703 148.189 80.818 148.445C81.5131 148.574 82.3172 149.137 82.675 150.039C82.858 150.482 82.9382 151.011 82.8436 151.542C82.7511 152.059 82.5454 152.501 82.3994 152.905C81.5912 154.503 83.4893 155.096 84.4558 154.689C85.5108 154.337 86.1873 153.884 86.2778 154.033Z" fill="#3A3A3A"/>
<path fill-rule="evenodd" clip-rule="evenodd" d="M96.9417 149.138C97.0095 149.05 97.758 149.232 98.7513 150.126C99.2222 150.572 99.7302 151.406 99.5965 152.405C99.541 152.889 99.2921 153.459 98.778 153.81C98.2742 154.162 97.6655 154.213 97.1802 154.209C96.1664 154.164 95.5371 154.166 95.0148 154.603C94.4966 155.006 94.256 155.578 94.2477 156.087C94.2375 157.147 94.8626 157.695 94.7454 157.805C94.7207 157.929 93.7419 157.574 93.493 156.134C93.382 155.439 93.6431 154.497 94.3752 153.857C94.7331 153.537 95.2081 153.283 95.7428 153.191C96.2651 153.103 96.7504 153.146 97.1843 153.144C98.9693 153.361 98.8911 151.387 98.1796 150.621C97.4887 149.75 96.8306 149.272 96.9417 149.138Z" fill="#3A3A3A"/>
<path fill-rule="evenodd" clip-rule="evenodd" d="M53.8009 202.851C53.8606 202.945 53.4349 203.582 52.2524 204.21C51.6705 204.5 50.7101 204.692 49.8094 204.23C49.3673 204.011 48.9128 203.588 48.7524 202.988C48.59 202.399 48.7483 201.811 48.9149 201.361C49.3015 200.425 49.5112 199.837 49.2747 199.202C49.0691 198.58 48.6085 198.162 48.1293 197.984C47.1278 197.614 46.3978 198.014 46.3341 197.867C46.2251 197.802 46.8914 197.007 48.3411 197.263C49.0362 197.391 49.8403 197.955 50.1981 198.856C50.379 199.3 50.4592 199.829 50.3667 200.36C50.2742 200.877 50.0685 201.318 49.9225 201.721C49.1143 203.319 51.0124 203.913 51.9769 203.507C53.0339 203.155 53.7104 202.702 53.8009 202.851Z" fill="#3A3A3A"/>
<path fill-rule="evenodd" clip-rule="evenodd" d="M76.9347 171.885C76.8422 171.949 76.182 171.552 75.5034 170.404C75.1847 169.842 74.9523 168.894 75.378 167.981C75.5775 167.533 75.9867 167.063 76.581 166.88C77.1671 166.694 77.7655 166.824 78.2261 166.971C79.1803 167.317 79.7808 167.499 80.4121 167.237C81.027 167.006 81.43 166.53 81.5884 166.05C81.9174 165.039 81.4835 164.332 81.6295 164.262C81.6912 164.15 82.5179 164.777 82.3225 166.226C82.2218 166.922 81.6891 167.746 80.7987 168.14C80.3607 168.338 79.8322 168.441 79.2934 168.369C78.769 168.3 78.3166 168.116 77.9053 167.987C76.2643 167.253 75.7481 169.162 76.1985 170.104C76.5954 171.138 77.0807 171.789 76.9347 171.885Z" fill="#3A3A3A"/>
<path fill-rule="evenodd" clip-rule="evenodd" d="M81.0866 188.522C80.9961 188.586 80.334 188.189 79.6553 187.041C79.3387 186.479 79.1042 185.531 79.532 184.618C79.7294 184.17 80.1386 183.702 80.735 183.519C81.321 183.331 81.9174 183.461 82.378 183.61C83.3322 183.954 83.9348 184.138 84.564 183.874C85.1789 183.643 85.582 183.169 85.7403 182.687C86.0693 181.676 85.6375 180.971 85.7814 180.899C85.8431 180.789 86.6698 181.414 86.4765 182.863C86.3757 183.559 85.8411 184.383 84.9506 184.777C84.5147 184.977 83.9841 185.077 83.4453 185.006C82.9209 184.937 82.4706 184.753 82.0572 184.626C80.4162 183.89 79.9001 185.799 80.3504 186.741C80.7473 187.775 81.2347 188.426 81.0866 188.522Z" fill="#3A3A3A"/>
<path fill-rule="evenodd" clip-rule="evenodd" d="M47.6045 181.425C47.4935 181.411 47.2734 180.677 47.5469 179.374C47.6929 178.744 48.1597 177.888 49.0934 177.496C49.5437 177.296 50.1627 177.22 50.7282 177.484C51.2896 177.737 51.6433 178.233 51.8839 178.65C52.359 179.541 52.6798 180.078 53.3234 180.305C53.9362 180.546 54.5532 180.461 54.9973 180.209C55.9248 179.682 56.0831 178.871 56.2394 178.914C56.3587 178.873 56.5458 179.893 55.423 180.834C54.8781 181.282 53.926 181.535 53.0006 181.231C52.5399 181.088 52.0793 180.81 51.7297 180.397C51.3883 179.997 51.1786 179.557 50.9585 179.186C50.2408 177.549 48.569 178.618 48.2646 179.613C47.8595 180.644 47.7772 181.454 47.6045 181.425Z" fill="#3A3A3A"/>
<path fill-rule="evenodd" clip-rule="evenodd" d="M77.8424 201.965C77.7313 201.951 77.5092 201.217 77.7848 199.914C77.9287 199.284 78.3976 198.428 79.3312 198.036C79.7795 197.836 80.4005 197.76 80.9661 198.024C81.5275 198.277 81.8791 198.773 82.1218 199.19C82.5968 200.081 82.9176 200.618 83.5613 200.845C84.172 201.086 84.791 201.001 85.2352 200.749C86.1626 200.222 86.321 199.411 86.4752 199.454C86.5945 199.413 86.7837 200.433 85.6588 201.374C85.1139 201.822 84.1617 202.075 83.2384 201.771C82.7778 201.628 82.3171 201.35 81.9675 200.937C81.6262 200.537 81.4164 200.097 81.1964 199.726C80.4787 198.089 78.8048 199.158 78.5025 200.155C78.0974 201.184 78.0151 201.994 77.8424 201.965Z" fill="#3A3A3A"/>
<path fill-rule="evenodd" clip-rule="evenodd" d="M76.9658 139.74C76.8547 139.726 76.6326 138.991 76.9082 137.689C77.0521 137.06 77.521 136.201 78.4546 135.811C78.9029 135.611 79.524 135.535 80.0895 135.799C80.6509 136.05 81.0025 136.549 81.2452 136.964C81.7202 137.857 82.041 138.394 82.6847 138.621C83.2954 138.86 83.9144 138.776 84.3586 138.525C85.2861 137.997 85.4444 137.186 85.5986 137.229C85.7179 137.186 85.9071 138.206 84.7822 139.148C84.2373 139.597 83.2852 139.849 82.3618 139.546C81.9012 139.401 81.4405 139.123 81.091 138.713C80.7496 138.31 80.5398 137.871 80.3198 137.501C79.6021 135.862 77.9282 136.931 77.6259 137.928C77.2208 138.96 77.1385 139.767 76.9658 139.74Z" fill="#3A3A3A"/>
<path fill-rule="evenodd" clip-rule="evenodd" d="M67.0873 210.226C67.0297 210.322 66.2647 210.232 65.1666 209.468C64.6422 209.086 64.0356 208.321 64.0417 207.314C64.0356 206.826 64.2103 206.229 64.6772 205.816C65.1316 205.406 65.73 205.279 66.2112 205.222C67.223 205.142 67.8461 205.06 68.3109 204.562C68.7735 204.098 68.9401 203.501 68.8846 202.997C68.7612 201.942 68.0723 201.477 68.1751 201.352C68.1834 201.227 69.1992 201.456 69.627 202.856C69.8264 203.53 69.6845 204.496 69.0388 205.224C68.7242 205.586 68.2862 205.898 67.7659 206.053C67.258 206.207 66.7706 206.225 66.3429 206.278C64.5435 206.286 64.8705 208.236 65.6725 208.906C66.4662 209.684 67.1798 210.077 67.0873 210.226Z" fill="#3A3A3A"/>
<path fill-rule="evenodd" clip-rule="evenodd" d="M31.2235 149.137C31.3202 149.082 31.9391 149.542 32.5026 150.75C32.7638 151.342 32.9015 152.304 32.3874 153.175C32.1468 153.6 31.6944 154.029 31.0837 154.154C30.4811 154.282 29.8992 154.092 29.455 153.902C28.5378 153.467 27.9579 153.226 27.306 153.426C26.6706 153.596 26.2243 154.031 26.0187 154.495C25.591 155.467 25.9529 156.213 25.8007 156.27C25.7308 156.375 24.9679 155.668 25.3051 154.246C25.4737 153.563 26.0845 152.797 27.0099 152.49C27.4644 152.335 28.0011 152.284 28.5296 152.409C29.0437 152.527 29.4755 152.756 29.8745 152.924C31.4353 153.812 32.1366 151.963 31.7808 150.982C31.4867 149.914 31.0672 149.219 31.2235 149.137Z" fill="#3A3A3A"/>
<path fill-rule="evenodd" clip-rule="evenodd" d="M65.8401 142.981C65.9367 142.926 66.5557 143.385 67.1192 144.593C67.3803 145.185 67.5181 146.15 67.004 147.018C66.7634 147.443 66.311 147.872 65.7002 147.997C65.0977 148.126 64.5157 147.936 64.0716 147.746C63.1544 147.31 62.5745 147.069 61.9226 147.27C61.2872 147.439 60.8409 147.874 60.6353 148.338C60.2075 149.311 60.5695 150.057 60.4173 150.114C60.3474 150.218 59.5844 149.513 59.9217 148.089C60.0903 147.406 60.7011 146.64 61.6265 146.336C62.0809 146.179 62.6177 146.127 63.1462 146.252C63.6603 146.371 64.0921 146.599 64.4911 146.767C66.0519 147.656 66.7531 145.807 66.3974 144.826C66.1033 143.757 65.6838 143.063 65.8401 142.981Z" fill="#3A3A3A"/>
<path fill-rule="evenodd" clip-rule="evenodd" d="M44.4998 179.176C44.4257 179.168 44.4381 178.418 44.5224 177.072C44.6067 175.723 44.763 173.776 44.9789 171.373C45.4087 166.57 46.0873 159.933 46.8832 152.627C47.0641 150.812 47.1567 149.047 46.9058 147.4C46.6734 145.751 46.0298 144.27 45.0941 143.066C43.2063 140.637 40.5268 139.374 38.2483 138.833C35.9389 138.283 33.9709 138.31 32.6301 138.346C31.2832 138.393 30.5346 138.477 30.5221 138.395C30.5099 138.332 31.2359 138.109 32.5952 137.934C33.9503 137.768 35.9656 137.619 38.4148 138.099C40.827 138.573 43.7512 139.83 45.8714 142.466C46.9264 143.765 47.679 145.449 47.9443 147.241C48.2301 149.033 48.1314 150.888 47.9484 152.731C47.1505 160.06 46.3547 166.668 45.7316 171.455C45.419 173.847 45.1476 175.782 44.9357 177.115C44.726 178.451 44.5738 179.184 44.4998 179.176Z" fill="#3A3A3A"/>
<path fill-rule="evenodd" clip-rule="evenodd" d="M45.8725 177.506C45.9033 177.798 38.8765 178.777 30.1758 179.69C21.475 180.608 14.3968 181.112 14.3659 180.818C14.3351 180.528 21.3619 179.547 30.0647 178.634C38.7613 177.719 45.8416 177.212 45.8725 177.506Z" fill="#3A3A3A"/>
<path fill-rule="evenodd" clip-rule="evenodd" d="M88.7038 174.05C88.3521 174.017 90.0528 167.855 88.1115 160.514C86.2916 153.14 81.8374 148.532 82.1335 148.336C82.2158 148.254 83.4394 149.26 84.957 151.303C86.4746 153.334 88.1794 156.478 89.15 160.252C90.1083 164.026 90.1186 167.598 89.7608 170.103C89.4071 172.618 88.8169 174.083 88.7038 174.05Z" fill="#3A3A3A" fill-opacity="0.5"/>
<path fill-rule="evenodd" clip-rule="evenodd" d="M171.009 174.547C171.274 172.794 171.223 171.127 172.21 169.582C174.174 166.501 176.973 167.267 179.683 168.622C182.435 169.997 185.024 170.824 188.016 169.537C192.729 167.51 194.816 160.58 190.43 157.231C189.007 156.146 187.543 157.934 187.754 159.274C188.053 161.162 188.978 163.246 187.349 164.868C185.172 167.04 182.615 165.222 180.44 164.245C178.1 163.193 175.615 162.96 173.197 163.928C169.035 165.596 166.01 171.2 169.317 174.99C169.783 175.526 170.898 175.283 171.009 174.547Z" fill="#3A3A3A" fill-opacity="0.5"/>
<path fill-rule="evenodd" clip-rule="evenodd" d="M182.037 94.0393C182.479 96.8815 185.447 102.878 188.576 103.706C190.236 104.145 191.47 103.058 192.759 102.175C195.108 100.567 197.427 98.9226 199.751 97.2778C200.59 96.6853 201.088 95.5431 200.463 94.5869C198.406 91.4424 196.352 88.2979 194.295 85.1554C193.75 84.3238 192.494 83.8109 191.587 84.4505C189.019 86.2546 186.269 87.928 183.925 90.0162C182.323 91.4465 184.369 93.882 186.168 92.9053C188.778 91.4873 191.157 89.5545 193.586 87.8484C192.681 87.6134 191.778 87.3784 190.876 87.1434C192.93 90.2859 194.986 93.4304 197.041 96.5729C197.279 95.676 197.516 94.7769 197.752 93.88C196.358 94.8668 194.96 95.8476 193.569 96.8385C192.872 97.3351 190.02 99.9218 189.263 99.7522C188.365 99.5519 186.915 96.9795 186.347 96.3073C185.36 95.1427 184.437 94.0414 183.162 93.1791C182.549 92.7623 181.947 93.4488 182.037 94.0393Z" fill="#3A3A3A" fill-opacity="0.5"/>
<path fill-rule="evenodd" clip-rule="evenodd" d="M152.922 123.351C149.691 126.434 148.461 131.234 151.544 134.936C154.444 138.424 160.06 139.163 163.683 136.385C172.433 129.675 163.313 117.295 153.872 119.857C152.124 120.331 152.56 122.807 154.287 122.905C157.047 123.061 160.002 123.167 162.206 125.088C164.575 127.153 164.627 130.645 162.686 133.019C157.538 139.306 148.599 130.048 154.005 124.428C154.686 123.719 153.635 122.67 152.922 123.351Z" fill="#3A3A3A" fill-opacity="0.5"/>
<path fill-rule="evenodd" clip-rule="evenodd" d="M227.281 151.871C226.167 157.621 225.217 163.383 224.33 169.171C224.119 170.563 225.083 171.502 226.473 171.3C231.945 170.509 237.401 169.78 242.801 168.595C243.84 168.366 244.261 167.095 243.768 166.231C240.708 160.88 236.811 153.424 231.053 150.504C229.595 149.765 227.53 151.364 228.62 152.921C230.333 155.371 232.869 157.208 234.863 159.452C237.16 162.036 239.318 164.817 240.973 167.855C241.438 167.048 241.905 166.241 242.369 165.436C236.714 165.99 231.147 167.001 225.548 167.964C226.284 168.519 227.018 169.075 227.752 169.633C228.427 163.814 229.029 158.005 229.467 152.165C229.562 150.933 227.52 150.643 227.281 151.871Z" fill="#3A3A3A" fill-opacity="0.5"/>
<path fill-rule="evenodd" clip-rule="evenodd" d="M204.659 123.738C204.737 121.937 201.788 121.488 201.449 123.304C200.382 129.015 199.997 135.112 199.954 140.909C199.946 142.116 201.838 142.421 202.113 141.199C203.38 135.566 204.406 129.506 204.659 123.738Z" fill="#3A3A3A" fill-opacity="0.5"/>
<path fill-rule="evenodd" clip-rule="evenodd" d="M282.099 141.483C284.237 141.408 284.157 138.451 282.099 138.239C276.415 137.65 270.41 137.777 264.714 138.186C263.57 138.267 263.116 140.149 264.421 140.331C270.19 141.134 276.275 141.694 282.099 141.483Z" fill="#3A3A3A" fill-opacity="0.5"/>
<path fill-rule="evenodd" clip-rule="evenodd" d="M217.407 67.3037C222.509 70.0375 228.1 72.7019 233.628 74.4693C235.37 75.0271 236.552 72.3321 234.887 71.5025C229.688 68.9117 223.831 66.9134 218.254 65.3075C217.07 64.9683 216.299 66.7091 217.407 67.3037Z" fill="#3A3A3A" fill-opacity="0.5"/>
<path fill-rule="evenodd" clip-rule="evenodd" d="M233.587 113.79C232.296 112.652 230.176 112.431 228.919 113.79C227.648 115.165 227.696 117.053 228.919 118.43C229.006 118.526 229.092 118.624 229.18 118.722C230.336 120.022 232.72 119.983 233.883 118.722C235.041 117.47 235.274 115.273 233.883 114.049C233.785 113.964 233.686 113.878 233.587 113.79Z" fill="#3A3A3A" fill-opacity="0.5"/>
<path fill-rule="evenodd" clip-rule="evenodd" d="M255.989 96.0442C252.671 99.0173 251.409 103.645 254.574 107.218C257.554 110.579 263.319 111.292 267.04 108.613C276.026 102.142 266.66 90.2043 256.965 92.675C255.17 93.1321 255.617 95.5201 257.391 95.6147C260.225 95.7644 263.26 95.8669 265.526 97.7209C267.956 99.7109 268.011 103.078 266.016 105.367C260.73 111.43 251.552 102.503 257.102 97.0825C257.803 96.3988 256.722 95.3881 255.989 96.0442Z" fill="#7CABFF"/>
<path fill-rule="evenodd" clip-rule="evenodd" d="M45.0335 66.8511C41.7883 65.4001 37.7955 65.7354 34.844 67.7046C31.8926 69.6737 30.0831 73.2117 30.2269 76.7334C30.3398 79.4849 31.4489 82.6164 29.6805 84.7441C28.3126 86.386 25.8726 86.5405 23.9131 87.4183C20.1873 89.0847 18.3326 93.9598 20.0271 97.642C20.9432 99.6356 22.7609 101.471 22.4138 103.633C22.1899 105.033 21.0664 106.14 19.8238 106.846C18.5791 107.549 17.1866 107.951 15.8988 108.573C11.2076 110.845 8.35884 116.122 8.49235 121.288C8.62791 126.454 11.5013 131.355 15.6215 134.531C19.7437 137.708 24.9976 139.25 30.2166 139.443C35.4479 139.636 40.9195 138.423 44.9103 135.074C47.9069 132.558 49.8623 129.034 51.3041 125.419C54.0481 118.545 55.1593 111.04 54.5267 103.677C53.8674 96.0366 51.3719 88.6315 50.8255 80.9826C50.6427 78.42 50.6797 75.823 50.1026 73.3173C49.5254 70.8117 48.2294 68.3345 46.0091 67.0035" fill="#241352"/>
<path fill-rule="evenodd" clip-rule="evenodd" d="M45.1976 66.6677C48.1283 60.4261 53.9553 55.693 60.5581 54.1927C64.6129 53.2714 69.0627 53.5827 72.6253 55.7697C76.19 57.9568 78.6529 62.223 78.1101 66.4436C77.7738 69.0519 76.3925 71.3801 75.5155 73.8535C74.6386 76.329 74.3509 79.3461 75.9814 81.3796C77.4437 83.2056 79.9511 83.6559 81.9482 84.8366C84.7999 86.5256 86.5924 89.9328 86.404 93.3026C86.2156 96.6725 84.0525 99.8472 81.0307 101.19C84.0323 101.547 86.8536 103.267 88.5894 105.798C90.3272 108.332 90.951 111.633 90.2624 114.648C89.274 118.969 85.847 122.274 82.1608 124.608C77.0407 127.852 71.1022 129.732 65.0868 130.01C58.7028 130.306 51.6322 128.37 48.1587 122.874C45.8801 119.265 45.5318 114.762 45.2766 110.471C44.5049 97.5191 43.9763 84.5523 43.4477 71.5876C43.3626 69.5022 43.2796 67.3836 43.7596 65.3542" fill="#241352"/>
<path fill-rule="evenodd" clip-rule="evenodd" d="M65.0735 125.987L123.717 147.176L118.118 124.351L133.369 120.615C133.369 120.615 149.774 165.234 138.381 166.428C118.436 168.52 88.2579 160.908 88.2579 160.908L65.0735 125.987Z" fill="#FFAFA7"/>
<path fill-rule="evenodd" clip-rule="evenodd" d="M61.3011 224.193C61.3011 224.193 131.088 147.78 178.2 164.462C225.313 181.146 245.205 258.975 245.205 258.975L207.679 258.364C207.679 258.364 178.045 199.581 163.584 201.858C149.122 204.138 104.46 260.088 104.46 260.088L61.3011 224.193Z" fill="#5F2D90"/>
<path fill-rule="evenodd" clip-rule="evenodd" d="M82.902 178.455L85.8216 222.945C70.6593 241.358 17.8746 217.553 17.8746 217.553L17.2585 198.951L16.0326 154.645C17.2482 137.002 33.8404 128.343 33.8404 128.343C40.6994 124.965 51.1599 123.048 60.5841 123.51C70.4223 123.988 72.8536 128.642 76.9063 137.509C80.1803 144.672 89.0667 156.343 82.902 178.455Z" fill="#FBC580"/>
<path fill-rule="evenodd" clip-rule="evenodd" d="M28.6113 225.327C28.6113 225.327 20.5746 259.086 45.0703 264.408C69.5661 269.728 159.66 257.281 183.126 259.41C206.592 261.535 273.327 265.555 273.327 265.555L278.213 225.465C278.213 225.465 174.361 220.327 162.624 223.339C150.887 226.347 28.6113 225.327 28.6113 225.327Z" fill="#6F35A5"/>
<path fill-rule="evenodd" clip-rule="evenodd" d="M39.3779 168.677C39.3779 168.677 31.9861 212.211 42.4101 211.138C76.6978 207.615 97.1144 207.14 97.1144 207.14L102.797 218.932C102.929 220.942 37.8649 239.556 27.4099 233.402C20.0285 229.057 8.26896 217.352 13.6069 182.373L14.8681 170.647L39.3779 168.677Z" fill="#FFAFA7"/>
<path fill-rule="evenodd" clip-rule="evenodd" d="M70.802 230.874L70.7321 227.907L113.65 221.735L125.042 181.159L172.586 179.985L159.757 223.903L70.802 230.874Z" fill="#9C8BBF"/>
<path fill-rule="evenodd" clip-rule="evenodd" d="M148.065 202.51C148.115 204.59 146.467 206.32 144.385 206.371C142.302 206.42 140.573 204.773 140.522 202.693C140.471 200.615 142.119 198.885 144.202 198.834C146.284 198.786 148.014 200.43 148.065 202.51Z" fill="white"/>
<path fill-rule="evenodd" clip-rule="evenodd" d="M149.007 201.062C149.077 203.924 146.811 206.301 143.948 206.371C141.084 206.44 138.706 204.175 138.636 201.313C138.567 198.452 140.833 196.075 143.696 196.007C146.56 195.938 148.938 198.203 149.007 201.062Z" fill="white"/>
<path fill-rule="evenodd" clip-rule="evenodd" d="M21.0281 139.852C21.0281 139.852 13.091 147.453 11.3171 176.216L42.0335 172.826C42.0335 172.826 47.1522 123.838 21.0281 139.852Z" fill="#FBC580"/>
<path fill-rule="evenodd" clip-rule="evenodd" d="M247.091 54.2455C247.091 54.2455 258.024 79.4807 261.072 78.1575C264.122 76.8363 292.359 58.8304 292.359 58.8304C292.359 58.8304 280.786 36.2375 278.378 34.9185C275.969 33.6015 247.091 54.2455 247.091 54.2455Z" fill="#E4B1ED"/>
<path fill-rule="evenodd" clip-rule="evenodd" d="M278.198 36.7436C278.335 36.7918 277.535 39.1548 276.13 42.9317C274.727 46.7106 272.717 51.9054 270.439 57.621C270.382 57.7618 270.325 57.9026 270.274 58.0338L270.12 58.4177L269.689 58.3521C263.401 57.3857 257.741 56.4597 253.657 55.7422C249.573 55.0246 247.066 54.5153 247.091 54.3803C247.113 54.2453 249.661 54.5095 253.776 55.0477C257.89 55.5878 263.571 56.3999 269.861 57.3606L269.278 57.6808C269.329 57.5496 269.384 57.4088 269.441 57.268C271.721 51.5524 273.842 46.3962 275.427 42.6829C277.012 38.9677 278.061 36.6953 278.198 36.7436Z" fill="#002C68"/>
<path fill-rule="evenodd" clip-rule="evenodd" d="M257.529 75.3798C257.199 75.3188 258.172 71.4603 259.703 66.7656C261.236 62.069 262.739 58.3325 263.062 58.4191C263.384 58.5057 262.411 62.3641 260.888 67.0352C259.364 71.7043 257.859 75.4408 257.529 75.3798Z" fill="#002C68"/>
<path fill-rule="evenodd" clip-rule="evenodd" d="M290.473 53.6431C290.426 53.8291 286.376 53.5868 281.428 53.0994C276.48 52.6146 272.508 52.0696 272.555 51.8836C272.603 51.6975 276.651 51.9399 281.601 52.426C286.548 52.912 290.519 53.457 290.473 53.6431Z" fill="#002C68"/>
<path fill-rule="evenodd" clip-rule="evenodd" d="M37.2772 80.4771L37.9643 89.782C37.9643 89.782 30.2625 90.8501 32.4595 98.0666C34.6545 105.283 39.9221 102.125 39.9221 102.125C39.9221 102.125 41.2395 120.618 59.6813 114.755C74.3572 110.089 73.4594 90.5648 71.5967 73.9206C70.8752 67.4724 64.9367 63.0396 58.7348 64.2805L47.6482 66.5C41.2416 67.7805 36.7826 73.7894 37.2772 80.4771Z" fill="#FFAFA7"/>
<path fill-rule="evenodd" clip-rule="evenodd" d="M37.7238 96.113L42.7625 123.802C43.8968 130.042 49.8643 134.032 55.8544 132.56C61.4048 131.194 64.9599 125.605 63.9632 119.814L61.2281 103.943L37.7238 96.113Z" fill="#FFAFA7"/>
<path fill-rule="evenodd" clip-rule="evenodd" d="M58.4916 97.2548C58.545 97.2038 58.6578 97.4912 58.9109 97.5299C59.1578 97.5645 59.5344 97.2222 59.6259 96.4988C59.7524 95.7815 59.6823 94.8381 59.606 93.7459C59.5405 92.5722 59.4765 91.4107 59.4094 90.1963C59.1731 85.1551 59.1578 81.0533 59.3774 81.0349C59.5969 81.0166 59.9658 85.0878 60.2021 90.129C60.2479 91.3476 60.2921 92.509 60.3363 93.6848C60.3683 94.7627 60.3988 95.8284 60.164 96.7107C59.9811 97.6318 59.2722 98.2023 58.8301 97.9292C58.4063 97.6419 58.4627 97.2487 58.4916 97.2548Z" fill="#241352"/>
<path fill-rule="evenodd" clip-rule="evenodd" d="M64.124 111.219C64.2087 111.347 63.4605 112.411 61.9143 113.556C60.3847 114.7 57.9952 115.827 55.2439 115.899C52.4926 115.976 50.0659 114.982 48.5012 113.922C46.9199 112.861 46.1385 111.84 46.2171 111.707C46.3555 111.321 50.0225 114.676 55.2212 114.51C60.4198 114.393 63.9752 110.841 64.124 111.219Z" fill="#241352"/>
<path fill-rule="evenodd" clip-rule="evenodd" d="M60.3357 101.52C60.4373 101.6 60.2041 102.236 59.401 102.85C58.6257 103.457 57.1987 103.952 55.7 103.437C54.2072 102.906 53.3124 101.598 53.0074 100.613C52.6846 99.6043 52.8341 98.9383 52.9596 98.9405C53.1171 98.9253 53.2406 99.5132 53.6711 100.272C54.0876 101.025 54.8888 101.962 56.0169 102.364C57.1489 102.754 58.3008 102.502 59.0442 102.153C59.7996 101.808 60.2161 101.409 60.3357 101.52Z" fill="#241352"/>
<path fill-rule="evenodd" clip-rule="evenodd" d="M37.6993 98.694C37.7008 98.8389 37.3598 99.093 36.7558 98.8175C36.4668 98.6774 36.0845 98.276 35.9208 97.5802C35.8383 97.2406 35.8016 96.825 35.8841 96.3905C35.9499 95.9654 36.2114 95.507 36.5004 95.3598C36.8949 95.1104 37.447 95.2577 37.7024 95.9321L37.0265 96.4783C36.5845 94.74 36.3704 93.4077 36.5356 93.2937C36.6992 93.1797 37.1916 94.322 37.7238 95.9986L37.0479 96.5448C37.0326 96.5092 36.9209 96.4332 36.7833 96.5163C36.635 96.5852 36.5677 96.8607 36.6182 97.224C36.6671 97.5707 36.8154 97.8296 36.9959 98.0267C37.3613 98.4019 37.7085 98.5112 37.6993 98.694Z" fill="#241352"/>
<path fill-rule="evenodd" clip-rule="evenodd" d="M65.3784 84.8013C65.1143 84.8434 64.7635 84.4558 64.5937 83.9369C64.4258 83.418 64.5051 82.9648 64.7691 82.9228C65.0332 82.8808 65.384 83.2683 65.5519 83.7872C65.7216 84.3061 65.6424 84.7593 65.3784 84.8013Z" fill="#241352"/>
<path fill-rule="evenodd" clip-rule="evenodd" d="M48.4728 85.7422C48.2106 85.7933 47.8315 85.4134 47.624 84.896C47.4165 84.3773 47.4618 83.9175 47.724 83.8665C47.9843 83.8167 48.3634 84.1952 48.5709 84.714C48.7783 85.2314 48.735 85.6911 48.4728 85.7422Z" fill="#241352"/>
<path fill-rule="evenodd" clip-rule="evenodd" d="M50.9187 81.7744C50.8292 82.0402 49.9958 82.0307 49.0729 82.2701C48.1418 82.4812 47.4202 82.8695 47.2026 82.6772C46.977 82.5151 47.5543 81.6217 48.8045 81.3202C50.0507 81.013 51.0285 81.5294 50.9187 81.7744Z" fill="#241352"/>
<path fill-rule="evenodd" clip-rule="evenodd" d="M66.0059 77.4287C65.9015 77.685 65.09 77.5587 64.1398 77.6567C63.1878 77.7321 62.4086 78.0054 62.2647 77.7717C62.1099 77.5625 62.8477 76.7878 64.0588 76.6804C65.2699 76.5654 66.1229 77.1949 66.0059 77.4287Z" fill="#241352"/>
<path fill-rule="evenodd" clip-rule="evenodd" d="M36.9783 89.9627C42.095 84.8239 43.5978 76.2628 44.9857 69.0425C49.7237 72.5977 56.2405 73.4714 61.7036 71.286C63.4179 73.3614 65.4324 75.1753 67.6584 76.6447C68.2929 77.064 69.0423 77.4707 69.7635 77.2466C70.6216 76.9809 71.0044 75.9661 71.2078 75.0653C71.8625 72.1867 71.8867 69.1047 70.9117 66.3216C69.9367 63.5426 67.892 61.0978 65.2148 60.031C62.3543 58.8895 59.1352 59.3856 56.1639 60.1784C51.6898 61.3738 47.3769 63.2106 43.3883 65.618C39.4722 67.9799 35.7132 71.1075 34.0513 75.4555C32.3914 79.8056 32.3994 88.2608 36.4022 90.4587" fill="#241352"/>
<path fill-rule="evenodd" clip-rule="evenodd" d="M55.2616 104.536C53.8463 104.144 53.3832 102.238 54.0684 100.934C54.752 99.6124 55.6645 98.8301 56.1931 98.9528C56.7148 99.1149 57.3002 100.303 57.5016 101.863C57.7117 103.408 56.6769 104.911 55.2616 104.536Z" fill="#241352" fill-opacity="0.2"/>
<path fill-rule="evenodd" clip-rule="evenodd" d="M48.2082 97.048C45.9521 97.1716 44.214 95.7296 44.331 94.1835C44.4443 92.6243 46.0821 91.5162 47.9891 91.4078C49.8961 91.3124 51.6137 92.2448 51.8477 93.7845C52.0817 95.3132 50.4643 96.9309 48.2082 97.048Z" fill="#241352" fill-opacity="0.12"/>
<path fill-rule="evenodd" clip-rule="evenodd" d="M68.0418 96.1056C65.739 96.2293 63.9926 94.7871 64.139 93.2408C64.2833 91.6837 65.9063 90.5711 67.7615 90.4649C69.6188 90.3738 71.3422 91.3063 71.6392 92.8418C71.9383 94.3642 70.3424 95.9842 68.0418 96.1056Z" fill="#241352" fill-opacity="0.12"/>
<path fill-rule="evenodd" clip-rule="evenodd" d="M37.8984 113.076C37.6231 113.07 37.4703 110.119 37.2968 106.496C37.1289 102.871 37.0025 99.92 37.276 99.883C37.5401 99.8439 38.1078 102.77 38.2776 106.44C38.453 110.111 38.1644 113.084 37.8984 113.076Z" fill="#6042DD"/>
<path fill-rule="evenodd" clip-rule="evenodd" d="M69.2825 124.573C64.415 122.595 101.854 136.817 101.854 136.817L98.0556 163.022L83.8155 158.242L69.2825 124.573Z" fill="#FBC580"/>
<path fill-rule="evenodd" clip-rule="evenodd" d="M45.0328 65.6443C46.1257 63.6099 46.4857 61.0001 45.999 58.635C45.5986 56.6867 44.4065 54.7543 42.7791 54.6524C41.8551 54.5935 40.9588 55.1485 40.2792 55.9255C38.6003 57.8421 38.1687 61.2176 39.2873 63.6779C40.4059 66.1381 42.9646 67.4453 45.1669 66.6818" fill="#241352"/>
<path fill-rule="evenodd" clip-rule="evenodd" d="M276.696 234.175C276.696 234.175 289.019 216.177 287.517 222.991C286.014 229.804 273.497 260.088 273.497 260.088L276.696 234.175Z" fill="#241352"/>
<path fill-rule="evenodd" clip-rule="evenodd" d="M93.6974 206.588C93.6974 206.588 110.572 201.183 109.993 202.962C109.413 204.738 106.543 204.804 103.672 207.671C103.672 207.671 122.535 207.879 121.627 209.467C120.72 211.052 108.442 211.453 108.367 211.722C108.295 211.993 121.798 212.33 121.495 213.797C121.189 215.266 108.641 214.907 108.641 214.907C108.641 214.907 120.274 216.171 120.035 217.752C119.797 219.335 109.073 218.195 109.073 218.195C109.073 218.195 118.049 219.242 117.814 220.675C117.673 221.548 91.5344 221.745 91.4801 222.387C91.4514 222.724 93.6974 206.588 93.6974 206.588Z" fill="#FFAFA7"/>
<path fill-rule="evenodd" clip-rule="evenodd" d="M119.277 124.385C119.277 124.385 108.678 110.647 110.568 110.655C112.457 110.661 113.443 113.247 117.113 115.017C117.113 115.017 111.257 97.8393 113.067 98.1997C114.882 98.5601 119.206 109.586 119.49 109.574C119.771 109.562 115.758 97.2082 117.263 97.0569C118.766 96.9056 122.453 108.397 122.453 108.397C122.453 108.397 119.928 97.473 121.521 97.2281C123.116 96.9832 125.466 107.047 125.466 107.047C125.466 107.047 123.587 98.5959 125.036 98.3888C125.919 98.2634 133.919 119.228 133.919 119.228C133.709 119.228 119.277 124.385 119.277 124.385Z" fill="#FFAFA7"/>
<path fill-rule="evenodd" clip-rule="evenodd" d="M25.9575 163.965C26.0553 163.954 26.3885 164.644 26.4066 166.018C26.403 166.684 26.1694 167.652 25.4414 168.255C25.0937 168.556 24.5757 168.771 24.0397 168.634C23.509 168.506 23.1088 168.086 22.8208 167.722C22.2377 166.929 21.8592 166.461 21.2616 166.379C20.6893 166.273 20.1732 166.497 19.8417 166.851C19.1463 167.589 19.168 168.443 19.0268 168.434C18.9326 168.502 18.5722 167.519 19.3546 166.318C19.7367 165.744 20.5064 165.276 21.3594 165.373C21.7813 165.415 22.2323 165.59 22.6126 165.928C22.9838 166.254 23.2482 166.649 23.509 166.973C24.4471 168.462 25.675 167.009 25.742 165.938C25.8905 164.808 25.8036 163.977 25.9575 163.965Z" fill="#FCF2FC"/>
<path fill-rule="evenodd" clip-rule="evenodd" d="M33.9587 155.591C33.8934 155.497 34.2577 154.781 35.3504 154.024C35.8869 153.668 36.7956 153.389 37.6924 153.81C38.1318 154.007 38.599 154.423 38.795 155.05C38.993 155.665 38.8841 156.305 38.7554 156.798C38.4506 157.822 38.2922 158.465 38.5654 159.127C38.8049 159.77 39.2781 160.181 39.7512 160.331C40.7371 160.648 41.4102 160.165 41.4834 160.318C41.5923 160.377 41.0083 161.276 39.6008 161.119C38.9237 161.036 38.1101 160.497 37.7023 159.565C37.4964 159.107 37.3816 158.548 37.435 157.976C37.4865 157.418 37.6508 156.933 37.7617 156.49C38.4248 154.725 36.56 154.242 35.6612 154.751C34.6734 155.207 34.0557 155.744 33.9587 155.591Z" fill="#FCF2FC"/>
<path fill-rule="evenodd" clip-rule="evenodd" d="M33.9587 135.802C33.8934 135.706 34.2577 134.992 35.3485 134.235C35.8849 133.879 36.7956 133.598 37.6924 134.021C38.1319 134.217 38.599 134.634 38.7931 135.261C38.993 135.876 38.8841 136.515 38.7554 137.008C38.4506 138.032 38.2902 138.676 38.5654 139.335C38.8049 139.981 39.2781 140.391 39.7492 140.541C40.7371 140.858 41.4102 140.376 41.4834 140.528C41.5923 140.587 41.0083 141.486 39.5988 141.329C38.9217 141.244 38.1101 140.705 37.7023 139.775C37.4964 139.317 37.3816 138.759 37.433 138.187C37.4845 137.628 37.6508 137.144 37.7617 136.701C38.4229 134.935 36.56 134.453 35.6612 134.959C34.6714 135.418 34.0557 135.954 33.9587 135.802Z" fill="#FCF2FC"/>
<path fill-rule="evenodd" clip-rule="evenodd" d="M54.2326 162.071C54.1391 162.139 53.3621 161.846 52.4643 160.867C52.0404 160.383 51.6576 159.54 52.0062 158.653C52.1657 158.22 52.5531 157.744 53.1843 157.512C53.8042 157.275 54.4787 157.332 55.0051 157.417C56.1012 157.629 56.7871 157.733 57.4456 157.423C58.0928 157.145 58.4711 156.663 58.5827 156.204C58.8129 155.24 58.2432 154.637 58.3936 154.555C58.446 154.448 59.4395 154.935 59.4145 156.287C59.3962 156.937 58.9177 157.75 57.9902 158.209C57.5345 158.44 56.9671 158.591 56.3655 158.583C55.7776 158.578 55.258 158.457 54.7863 158.385C52.8835 157.888 52.5691 159.698 53.1866 160.513C53.7609 161.42 54.3807 161.967 54.2326 162.071Z" fill="#FCF2FC"/>
<path fill-rule="evenodd" clip-rule="evenodd" d="M67.8973 182.042C67.9574 182.14 67.5283 182.798 66.3362 183.447C65.7495 183.749 64.7813 183.945 63.8733 183.468C63.4275 183.244 62.9694 182.805 62.8076 182.184C62.6439 181.576 62.8035 180.968 62.9735 180.503C63.3612 179.536 63.5726 178.928 63.3342 178.272C63.1269 177.63 62.6625 177.197 62.1795 177.013C61.1719 176.631 60.4359 177.045 60.3696 176.893C60.2597 176.825 60.9335 176.004 62.393 176.268C63.0937 176.401 63.9044 176.984 64.2651 177.915C64.4475 178.373 64.5305 178.92 64.4351 179.469C64.3418 180.003 64.1345 180.459 63.9873 180.877C63.1725 182.526 65.0861 183.143 66.0605 182.72C67.124 182.357 67.8061 181.888 67.8973 182.042Z" fill="#FCF2FC"/>
<path fill-rule="evenodd" clip-rule="evenodd" d="M83.93 150.002C83.9901 150.099 83.5609 150.76 82.3689 151.406C81.7821 151.706 80.814 151.905 79.9059 151.427C79.4602 151.203 79.002 150.764 78.8403 150.146C78.6765 149.535 78.8362 148.927 79.0062 148.463C79.3938 147.498 79.6053 146.889 79.3669 146.231C79.1596 145.589 78.6952 145.156 78.2121 144.972C77.2046 144.59 76.4686 145.002 76.4022 144.852C76.2924 144.784 76.9661 143.963 78.4257 144.227C79.1264 144.36 79.937 144.943 80.2977 145.874C80.4823 146.332 80.5631 146.879 80.4677 147.428C80.3744 147.962 80.1671 148.418 80.0199 148.836C79.2052 150.488 81.1187 151.1 82.0931 150.68C83.1567 150.317 83.8387 149.848 83.93 150.002Z" fill="#FCF2FC"/>
<path fill-rule="evenodd" clip-rule="evenodd" d="M93.3224 146.079C93.3952 145.993 94.1988 146.17 95.265 147.042C95.7706 147.475 96.3158 148.287 96.1723 149.26C96.1127 149.732 95.8456 150.287 95.2937 150.629C94.7529 150.971 94.0994 151.021 93.5785 151.017C92.4901 150.973 91.8146 150.975 91.2539 151.401C90.6976 151.793 90.4393 152.35 90.4305 152.845C90.4195 153.878 91.0906 154.411 90.9647 154.518C90.9382 154.64 89.8874 154.294 89.6203 152.891C89.5011 152.215 89.7815 151.297 90.5674 150.675C90.9515 150.362 91.4614 150.116 92.0354 150.026C92.5961 149.94 93.1171 149.982 93.5829 149.98C95.499 150.191 95.4151 148.269 94.6513 147.523C93.9096 146.676 93.2032 146.21 93.3224 146.079Z" fill="#FCF2FC"/>
<path fill-rule="evenodd" clip-rule="evenodd" d="M49.9785 199.006C50.0387 199.103 49.6095 199.762 48.4174 200.41C47.8307 200.71 46.8626 200.909 45.9545 200.431C45.5088 200.205 45.0506 199.768 44.8889 199.147C44.7251 198.539 44.8848 197.931 45.0527 197.467C45.4424 196.5 45.6539 195.891 45.4155 195.235C45.2082 194.593 44.7438 194.16 44.2607 193.976C43.2511 193.594 42.5151 194.008 42.4509 193.856C42.341 193.788 43.0127 192.967 44.4743 193.231C45.175 193.364 45.9856 193.947 46.3463 194.878C46.5288 195.336 46.6096 195.883 46.5163 196.432C46.4231 196.966 46.2157 197.422 46.0685 197.838C45.2538 199.49 47.1673 200.104 48.1396 199.684C49.2053 199.321 49.8873 198.852 49.9785 199.006Z" fill="#FCF2FC"/>
<path fill-rule="evenodd" clip-rule="evenodd" d="M73.5476 167.728C73.4507 167.792 72.7596 167.399 72.0491 166.268C71.7154 165.712 71.4721 164.779 71.9177 163.876C72.1266 163.436 72.5551 162.973 73.1773 162.791C73.7909 162.606 74.4175 162.737 74.8998 162.882C75.8988 163.221 76.5275 163.402 77.1885 163.142C77.8323 162.916 78.2543 162.447 78.4201 161.971C78.7646 160.975 78.3103 160.278 78.4631 160.207C78.5277 160.099 79.3933 160.717 79.1887 162.146C79.0832 162.834 78.5256 163.644 77.5933 164.033C77.1347 164.23 76.5813 164.331 76.0172 164.261C75.4682 164.192 74.9945 164.009 74.5639 163.884C72.8457 163.158 72.3053 165.041 72.7768 165.97C73.1924 166.99 73.7005 167.633 73.5476 167.728Z" fill="#FCF2FC"/>
<path fill-rule="evenodd" clip-rule="evenodd" d="M78.262 183.748C78.1672 183.811 77.474 183.42 76.7635 182.287C76.4319 181.733 76.1865 180.797 76.6343 179.896C76.841 179.455 77.2694 178.993 77.8938 178.812C78.5074 178.627 79.1317 178.756 79.614 178.903C80.613 179.241 81.2438 179.423 81.9026 179.163C82.5463 178.935 82.9683 178.467 83.1341 177.992C83.4786 176.994 83.0264 176.298 83.1772 176.228C83.2417 176.119 84.1072 176.736 83.9048 178.165C83.7994 178.852 83.2396 179.665 82.3074 180.054C81.8509 180.251 81.2955 180.35 80.7314 180.279C80.1824 180.211 79.7109 180.03 79.2781 179.905C77.5601 179.179 77.0197 181.062 77.4912 181.991C77.9067 183.011 78.417 183.654 78.262 183.748Z" fill="#FCF2FC"/>
<path fill-rule="evenodd" clip-rule="evenodd" d="M44.5056 178.1C44.3999 178.083 44.1904 177.243 44.4508 175.749C44.5898 175.028 45.0342 174.046 45.9231 173.597C46.3518 173.367 46.9411 173.281 47.4795 173.583C48.014 173.873 48.3508 174.442 48.5799 174.92C49.0321 175.941 49.3375 176.557 49.9503 176.817C50.5338 177.093 51.1211 176.994 51.544 176.706C52.427 176.102 52.5778 175.173 52.7265 175.222C52.8401 175.175 53.0183 176.344 51.9493 177.423C51.4305 177.936 50.524 178.226 49.643 177.877C49.2044 177.713 48.7658 177.395 48.433 176.922C48.108 176.463 47.9083 175.959 47.6988 175.533C47.0155 173.658 45.4238 174.882 45.1341 176.023C44.7484 177.205 44.6701 178.132 44.5056 178.1Z" fill="#FCF2FC"/>
<path fill-rule="evenodd" clip-rule="evenodd" d="M74.6855 198.832C74.5798 198.816 74.3683 197.975 74.6307 196.481C74.7677 195.76 75.2141 194.779 76.1031 194.329C76.5299 194.1 77.1212 194.013 77.6597 194.315C78.1942 194.606 78.529 195.175 78.7601 195.652C79.2123 196.673 79.5178 197.289 80.1306 197.549C80.7122 197.825 81.3015 197.727 81.7244 197.439C82.6075 196.835 82.7583 195.905 82.9051 195.954C83.0187 195.907 83.1988 197.076 82.1278 198.155C81.6089 198.668 80.7024 198.959 79.8232 198.61C79.3847 198.446 78.9461 198.127 78.6132 197.654C78.2882 197.195 78.0885 196.692 77.879 196.266C77.1956 194.39 75.6018 195.615 75.314 196.757C74.9283 197.938 74.85 198.865 74.6855 198.832Z" fill="#FCF2FC"/>
<path fill-rule="evenodd" clip-rule="evenodd" d="M74.6855 135.693C74.5798 135.676 74.3683 134.833 74.6307 133.341C74.7677 132.62 75.2141 131.637 76.1031 131.189C76.5299 130.96 77.1212 130.873 77.6597 131.175C78.1942 131.463 78.529 132.035 78.7601 132.51C79.2123 133.533 79.5178 134.149 80.1306 134.409C80.7122 134.683 81.3015 134.587 81.7244 134.299C82.6075 133.695 82.7583 132.765 82.9051 132.815C83.0187 132.765 83.1988 133.934 82.1278 135.013C81.6089 135.529 80.7024 135.817 79.8232 135.47C79.3847 135.304 78.9461 134.985 78.6132 134.515C78.2882 134.053 78.0885 133.55 77.879 133.126C77.1956 131.248 75.6018 132.473 75.314 133.615C74.9283 134.798 74.85 135.723 74.6855 135.693Z" fill="#FCF2FC"/>
<path fill-rule="evenodd" clip-rule="evenodd" d="M63.9048 206.342C63.8377 206.433 62.9469 206.348 61.6681 205.623C61.0575 205.26 60.351 204.535 60.3582 203.578C60.351 203.115 60.5546 202.548 61.0982 202.157C61.6274 201.767 62.3243 201.647 62.8846 201.592C64.0628 201.517 64.7884 201.439 65.3296 200.966C65.8684 200.525 66.0624 199.959 65.9977 199.48C65.854 198.479 65.0518 198.037 65.1715 197.919C65.1811 197.8 66.3641 198.018 66.8622 199.346C67.0945 199.986 66.9292 200.904 66.1773 201.594C65.8109 201.937 65.3009 202.234 64.695 202.382C64.1035 202.527 63.536 202.545 63.0379 202.595C60.9425 202.603 61.3233 204.453 62.2572 205.089C63.1816 205.828 64.0125 206.201 63.9048 206.342Z" fill="#FCF2FC"/>
<path fill-rule="evenodd" clip-rule="evenodd" d="M28.6609 144.179C28.758 144.121 29.3793 144.606 29.9449 145.88C30.207 146.505 30.3453 147.52 29.8293 148.438C29.5878 148.886 29.1336 149.339 28.5206 149.47C27.9158 149.606 27.3316 149.406 26.8857 149.205C25.9651 148.746 25.383 148.492 24.7286 148.703C24.0908 148.882 23.6429 149.341 23.4365 149.83C23.0071 150.856 23.3704 151.643 23.2176 151.703C23.1475 151.813 22.3816 151.067 22.7202 149.567C22.8894 148.847 23.5025 148.039 24.4314 147.716C24.8876 147.552 25.4263 147.498 25.9568 147.63C26.4729 147.755 26.9064 147.996 27.3068 148.173C28.8736 149.11 29.5775 147.16 29.2203 146.125C28.9252 144.998 28.5041 144.266 28.6609 144.179Z" fill="#FCF2FC"/>
<path fill-rule="evenodd" clip-rule="evenodd" d="M62.6124 139.467C62.7094 139.409 63.3308 139.894 63.8964 141.168C64.1585 141.793 64.2968 142.81 63.7808 143.726C63.5393 144.174 63.0851 144.627 62.4721 144.758C61.8673 144.894 61.2831 144.694 60.8372 144.493C59.9166 144.034 59.3345 143.78 58.6801 143.991C58.0423 144.17 57.5944 144.629 57.3879 145.118C56.9586 146.144 57.3219 146.931 57.1691 146.991C57.0989 147.101 56.3331 146.357 56.6717 144.855C56.8409 144.135 57.454 143.327 58.3829 143.006C58.8391 142.84 59.3778 142.786 59.9083 142.918C60.4244 143.043 60.8579 143.284 61.2583 143.461C62.825 144.398 63.5289 142.448 63.1718 141.413C62.8766 140.286 62.4555 139.553 62.6124 139.467Z" fill="#FCF2FC"/>
<path fill-rule="evenodd" clip-rule="evenodd" d="M41.5791 176.216C41.5037 176.207 41.5163 175.422 41.6021 174.012C41.6879 172.6 41.8471 170.561 42.0669 168.045C42.5044 163.016 43.1952 156.067 44.0054 148.417C44.1896 146.517 44.2838 144.669 44.0284 142.944C43.7919 141.218 43.1366 139.667 42.1841 138.407C40.2623 135.863 37.5345 134.541 35.215 133.974C32.864 133.399 30.8606 133.427 29.4957 133.465C28.1244 133.514 27.3624 133.602 27.3497 133.516C27.3373 133.45 28.0763 133.217 29.4601 133.033C30.8397 132.86 32.8912 132.703 35.3845 133.206C37.8402 133.702 40.8171 135.018 42.9754 137.778C44.0494 139.139 44.8156 140.901 45.0856 142.778C45.3766 144.654 45.2761 146.596 45.0898 148.526C44.2776 156.2 43.4674 163.119 42.8331 168.131C42.5149 170.636 42.2385 172.662 42.0229 174.057C41.8094 175.456 41.6545 176.224 41.5791 176.216Z" fill="#241352"/>
<path fill-rule="evenodd" clip-rule="evenodd" d="M44.3254 174.376C44.3567 174.535 37.2054 175.065 28.3504 175.559C19.4954 176.056 12.2917 176.33 12.2602 176.17C12.2289 176.013 19.3803 175.482 28.2374 174.987C37.0882 174.491 44.2939 174.217 44.3254 174.376Z" fill="#241352"/>
<path fill-rule="evenodd" clip-rule="evenodd" d="M84.5987 169.619C84.2611 169.586 85.8939 163.489 84.0301 156.226C82.2827 148.932 78.0061 144.372 78.2904 144.179C78.3693 144.097 79.5441 145.093 81.0013 147.115C82.4584 149.124 84.0952 152.235 85.0272 155.969C85.9473 159.703 85.9571 163.237 85.6136 165.713C85.274 168.201 84.7073 169.653 84.5987 169.619Z" fill="#241352"/>
<path fill-rule="evenodd" clip-rule="evenodd" d="M166.204 169.848C166.465 168.141 166.414 166.517 167.385 165.012C169.317 162.011 172.07 162.757 174.736 164.077C177.443 165.416 179.99 166.22 182.933 164.968C187.569 162.994 189.623 156.244 185.308 152.982C183.908 151.925 182.468 153.666 182.676 154.972C182.969 156.811 183.88 158.841 182.278 160.421C180.135 162.536 177.621 160.765 175.481 159.814C173.179 158.789 170.735 158.562 168.356 159.505C164.262 161.129 161.287 166.588 164.539 170.28C164.998 170.801 166.095 170.565 166.204 169.848Z" fill="#7E2E84"/>
<path fill-rule="evenodd" clip-rule="evenodd" d="M178.254 90.0425C178.677 92.9058 181.518 98.9474 184.515 99.7811C186.103 100.224 187.285 99.1286 188.519 98.2393C190.768 96.6193 192.989 94.9622 195.213 93.3052C196.017 92.7082 196.493 91.5575 195.895 90.5942C193.926 87.4262 191.959 84.2582 189.99 81.0922C189.468 80.2544 188.265 79.7378 187.397 80.3821C184.938 82.1997 182.305 83.8856 180.061 85.9893C178.527 87.4303 180.486 89.884 182.209 88.9C184.708 87.4714 186.985 85.5241 189.311 83.8053C188.444 83.5686 187.58 83.3319 186.716 83.0951C188.683 86.2611 190.652 89.4291 192.618 92.595C192.847 91.6913 193.073 90.7856 193.3 89.8819C191.965 90.8762 190.626 91.8642 189.295 92.8626C188.628 93.3628 185.897 95.9688 185.172 95.798C184.312 95.5963 182.924 93.0046 182.38 92.3274C181.435 91.1541 180.551 90.0445 179.331 89.1759C178.744 88.7559 178.167 89.4476 178.254 90.0425Z" fill="#FF7643"/>
<path fill-rule="evenodd" clip-rule="evenodd" d="M150.363 119.604C147.045 122.577 145.782 127.205 148.948 130.775C151.925 134.139 157.693 134.852 161.413 132.172C170.399 125.702 161.033 113.764 151.338 116.235C149.543 116.692 149.991 119.08 151.765 119.174C154.599 119.324 157.633 119.426 159.897 121.279C162.33 123.27 162.383 126.638 160.389 128.927C155.104 134.99 145.924 126.062 151.476 120.642C152.175 119.958 151.095 118.948 150.363 119.604Z" fill="#7CABFF"/>
<path fill-rule="evenodd" clip-rule="evenodd" d="M223.541 147.662C222.473 153.593 221.562 159.538 220.712 165.51C220.509 166.945 221.434 167.915 222.767 167.706C228.013 166.89 233.244 166.138 238.422 164.915C239.418 164.679 239.822 163.368 239.349 162.476C236.415 156.956 232.678 149.264 227.158 146.252C225.76 145.488 223.78 147.139 224.825 148.745C226.467 151.273 228.899 153.168 230.811 155.482C233.013 158.149 235.082 161.018 236.669 164.152C237.115 163.319 237.562 162.487 238.008 161.656C232.586 162.228 227.248 163.271 221.879 164.264C222.585 164.837 223.289 165.411 223.993 165.986C224.64 159.983 225.217 153.99 225.637 147.965C225.728 146.694 223.77 146.395 223.541 147.662Z" fill="#3F3351"/>
<path fill-rule="evenodd" clip-rule="evenodd" d="M197.816 136.8C199.339 131.179 200.573 125.132 200.877 119.377C200.971 117.581 197.426 117.132 197.018 118.945C195.735 124.643 195.272 130.727 195.22 136.511C195.211 137.716 197.485 138.019 197.816 136.8Z" fill="#FF7643"/>
<path fill-rule="evenodd" clip-rule="evenodd" d="M261.04 136.05C266.468 137.075 272.194 137.79 277.675 137.521C279.687 137.424 279.612 133.649 277.675 133.378C272.326 132.627 266.675 132.788 261.315 133.31C260.239 133.414 259.812 135.817 261.04 136.05Z" fill="#FF7643"/>
<path fill-rule="evenodd" clip-rule="evenodd" d="M214.593 64.0512C219.452 66.5496 224.776 68.9845 230.04 70.5997C231.698 71.1095 232.824 68.6466 231.238 67.8884C226.288 65.5207 220.711 63.6945 215.4 62.2268C214.272 61.9168 213.538 63.5078 214.593 64.0512Z" fill="#3F3351"/>
<path fill-rule="evenodd" clip-rule="evenodd" d="M230.948 109.686C230.839 109.591 230.731 109.496 230.622 109.399C229.201 108.143 226.868 107.9 225.486 109.399C224.087 110.917 224.139 113.001 225.486 114.521C225.581 114.627 225.676 114.735 225.773 114.843C227.045 116.278 229.667 116.235 230.948 114.843C232.222 113.461 232.477 111.037 230.948 109.686Z" fill="#241352"/>
<path fill-rule="evenodd" clip-rule="evenodd" d="M103.38 5.26007C97.6403 7.23816 92.8913 12.1216 90.8132 18.0894C88.735 24.0592 89.3495 30.9836 92.3822 36.4804C98.219 47.0637 113.206 50.4715 122.674 43.3692C132.142 36.2669 133.971 20.2433 126.373 10.9808C118.772 1.72044 103.445 1.29342 95.3911 10.1205" fill="#E6CCA9"/>
</svg>
