<svg width="342" height="311" viewBox="0 0 342 311" fill="none" xmlns="http://www.w3.org/2000/svg">
<path d="M15.1798 302.185C25.8488 311.224 39.6751 311.678 53.0396 310.567C54.9058 310.413 56.7588 310.231 58.5946 310.035C58.6057 310.031 58.6202 310.033 58.6315 310.029C58.7197 310.019 58.8081 310.009 58.8926 310.004C59.2715 309.962 59.6506 309.92 60.0259 309.878L59.9372 310.077L59.6589 310.695C59.759 310.488 59.8589 310.286 59.9589 310.079C59.9883 310.017 60.0213 309.955 60.0505 309.893C63.5127 302.807 66.9465 295.461 67.8224 287.37C68.7278 278.972 66.1834 269.463 59.8987 265.335C59.0745 264.795 58.2016 264.365 57.2964 264.053C56.9205 263.919 56.5395 263.81 56.1543 263.713C53.7973 263.098 51.3434 263.232 49.045 264.101C46.7465 264.971 44.6865 266.545 43.0767 268.661C41.4669 270.777 40.3655 273.36 39.8856 276.143C39.4058 278.926 39.5648 281.809 40.3464 284.495C35.0181 278.07 36.0121 267.645 37.8501 258.933C39.6916 250.221 41.921 240.527 38.1754 232.702C36.0933 228.347 32.4319 225.645 28.3228 224.556C28.1968 224.524 28.0709 224.492 27.9446 224.464C23.0487 223.298 17.959 224.347 13.692 227.401C5.83515 233.224 1.79976 244.265 0.490041 255.08C-1.62016 272.483 3.04974 291.906 15.1798 302.185Z" fill="#F2F2F2"/>
<path d="M18.273 274.693C18.5849 278.521 19.3747 282.276 20.6173 285.839C21.7625 288.991 23.3061 291.927 25.1969 294.548C29.0593 299.958 34.1665 304.025 39.7131 306.735C43.9541 308.758 48.3977 310.148 52.9381 310.873C54.8179 310.719 56.6843 310.537 58.5335 310.342C58.5446 310.339 58.5593 310.34 58.5707 310.336C58.6595 310.327 58.7486 310.317 58.8336 310.311C59.2153 310.269 59.5971 310.228 59.9752 310.186L59.8859 310.384L59.6056 311C59.7063 310.794 59.807 310.592 59.9077 310.386C59.9373 310.324 59.9705 310.263 60 310.201C56.596 306.252 54.0545 301.41 52.5885 296.082C51.1224 290.754 50.7745 285.095 51.5739 279.578C52.4105 274.1 54.347 268.93 57.2258 264.489C56.8472 264.355 56.4635 264.246 56.0754 264.15C54.9814 265.891 54.0217 267.742 53.2076 269.68C50.2865 276.593 49.3546 284.417 50.5498 291.994C51.6609 298.851 54.4292 305.197 58.5295 310.286C58.1705 310.256 57.8079 310.222 57.4532 310.185C50.7335 309.522 44.0276 307.84 37.9327 304.394C32.7231 301.521 28.2001 297.2 24.7624 291.812C21.0712 285.884 19.4446 278.755 19.1652 271.508C18.8689 263.75 19.7335 255.856 21.254 248.312C22.8067 240.577 25.1664 233.093 28.2805 226.026C28.3501 225.866 28.3642 225.68 28.3198 225.508C28.2753 225.336 28.1758 225.191 28.0418 225.102C27.9301 225.014 27.7932 224.981 27.6608 225.01C27.596 225.03 27.536 225.067 27.4851 225.118C27.4342 225.169 27.3938 225.232 27.3669 225.304C26.9827 226.177 26.6057 227.05 26.243 227.934C23.2225 235.291 20.9987 243.058 19.6227 251.054C18.2869 258.768 17.5739 266.838 18.273 274.693Z" fill="white"/>
<path d="M335.142 267H158.858C157.04 266.998 155.296 266.149 154.011 264.64C152.725 263.131 152.002 261.086 152 258.952V8.04787C152.002 5.91418 152.725 3.86857 154.011 2.35982C155.296 0.851071 157.04 0.00240199 158.858 0H335.142C336.96 0.00240199 338.704 0.851071 339.989 2.35982C341.275 3.86857 341.998 5.91418 342 8.04787V258.952C341.998 261.086 341.275 263.131 339.989 264.64C338.704 266.149 336.96 266.998 335.142 267ZM158.858 0.946809C157.253 0.948939 155.715 1.69777 154.581 3.02901C153.447 4.36026 152.809 6.16521 152.807 8.04787V258.952C152.809 260.835 153.447 262.64 154.581 263.971C155.715 265.302 157.253 266.051 158.858 266.053H335.142C336.747 266.051 338.285 265.302 339.419 263.971C340.553 262.64 341.191 260.835 341.193 258.952V8.04787C341.191 6.16521 340.553 4.36026 339.419 3.02901C338.285 1.69777 336.747 0.948939 335.142 0.946809H158.858Z" fill="#3F3D56"/>
<path d="M342 20H152V21H342V20Z" fill="#3F3D56"/>
<path d="M307.769 57H182.231C180.843 57 179.513 56.3679 178.532 55.2426C177.551 54.1174 177 52.5913 177 51C177 49.4087 177.551 47.8826 178.532 46.7574C179.513 45.6321 180.843 45 182.231 45H307.769C309.157 45 310.487 45.6321 311.468 46.7574C312.449 47.8826 313 49.4087 313 51C313 52.5913 312.449 54.1174 311.468 55.2426C310.487 56.3679 309.157 57 307.769 57ZM182.231 45.9231C181.057 45.9231 179.931 46.458 179.101 47.4101C178.271 48.3622 177.805 49.6535 177.805 51C177.805 52.3465 178.271 53.6378 179.101 54.5899C179.931 55.542 181.057 56.0769 182.231 56.0769H307.769C308.943 56.0769 310.069 55.542 310.899 54.5899C311.729 53.6378 312.195 52.3465 312.195 51C312.195 49.6535 311.729 48.3622 310.899 47.4101C310.069 46.458 308.943 45.9231 307.769 45.9231H182.231Z" fill="#3F3D56"/>
<path d="M229.178 144H179.822C178.013 143.998 176.279 143.148 175 141.637C173.721 140.126 173.002 138.077 173 135.941V88.0593C173.002 85.9225 173.721 83.874 175 82.3632C176.279 80.8523 178.013 80.0024 179.822 80H229.178C230.987 80.0024 232.721 80.8523 234 82.3632C235.279 83.874 235.998 85.9225 236 88.0593V135.941C235.998 138.077 235.279 140.126 234 141.637C232.721 143.148 230.987 143.998 229.178 144ZM179.822 80.9481C178.226 80.9503 176.696 81.7002 175.568 83.0333C174.439 84.3664 173.804 86.1739 173.803 88.0593V135.941C173.804 137.826 174.439 139.634 175.568 140.967C176.696 142.3 178.226 143.05 179.822 143.052H229.178C230.774 143.05 232.304 142.3 233.432 140.967C234.561 139.634 235.196 137.826 235.197 135.941V88.0593C235.196 86.1739 234.561 84.3664 233.432 83.0333C232.304 81.7002 230.774 80.9503 229.178 80.9481H179.822Z" fill="#3F3D56"/>
<path d="M314.497 82H264.503C260.912 82 258 85.4471 258 89.6992V138.301C258 142.553 260.912 146 264.503 146H314.497C318.088 146 321 142.553 321 138.301V89.6992C321 85.4471 318.088 82 314.497 82Z" fill="#F2F2F2"/>
<path d="M229.178 233H179.822C178.013 232.998 176.279 232.148 175 230.637C173.721 229.126 173.002 227.077 173 224.941V177.059C173.002 174.923 173.721 172.874 175 171.363C176.279 169.852 178.013 169.002 179.822 169H229.178C230.987 169.002 232.721 169.852 234 171.363C235.279 172.874 235.998 174.923 236 177.059V224.941C235.998 227.077 235.279 229.126 234 230.637C232.721 232.148 230.987 232.998 229.178 233ZM179.822 169.948C178.226 169.95 176.696 170.7 175.568 172.033C174.439 173.366 173.804 175.174 173.803 177.059V224.941C173.804 226.826 174.439 228.634 175.568 229.967C176.696 231.3 178.226 232.05 179.822 232.052H229.178C230.774 232.05 232.304 231.3 233.432 229.967C234.561 228.634 235.196 226.826 235.197 224.941V177.059C235.196 175.174 234.561 173.366 233.432 172.033C232.304 170.7 230.774 169.95 229.178 169.948H179.822Z" fill="#3F3D56"/>
<path d="M314.497 172H264.503C260.912 172 258 175.393 258 179.579V227.421C258 231.607 260.912 235 264.503 235H314.497C318.088 235 321 231.607 321 227.421V179.579C321 175.393 318.088 172 314.497 172Z" fill="#F2F2F2"/>
<path d="M191.905 133C191.896 133 191.887 133 191.878 132.999L186.164 132.75C185.986 132.743 185.816 132.661 185.685 132.518C185.554 132.375 185.471 132.181 185.452 131.972C185.059 127.831 183.441 106.728 190.221 97.9572C191.18 96.6907 192.367 95.6923 193.694 95.0343C195.021 94.3763 196.456 94.0752 197.894 94.153C197.952 94.1574 198.011 94.1428 198.062 94.1108C198.114 94.0789 198.158 94.0308 198.188 93.9718L199.572 91.4063C199.647 91.2673 199.754 91.1561 199.881 91.0853C200.007 91.0145 200.148 90.987 200.287 91.0057C201.396 91.1639 207.049 91.9105 209.426 91.0982C209.566 91.0494 209.716 91.0505 209.855 91.1012C209.995 91.1519 210.119 91.2501 210.212 91.3835L212.028 94.0035C212.059 94.0509 212.1 94.0888 212.146 94.1141C212.192 94.1393 212.243 94.1511 212.293 94.1485C213.217 94.1266 216.457 94.3378 219.292 98.0802C222.361 102.133 225.53 111.276 223.189 131.82C223.165 132.031 223.076 132.224 222.941 132.365C222.805 132.505 222.631 132.583 222.45 132.584H217.95C217.772 132.583 217.599 132.506 217.464 132.368C217.329 132.23 217.24 132.04 217.214 131.831L215.744 119.86C215.732 119.762 215.689 119.672 215.623 119.609C215.558 119.547 215.475 119.515 215.391 119.521C215.307 119.527 215.228 119.571 215.169 119.642C215.111 119.714 215.077 119.809 215.076 119.908L214.974 125.529C214.971 125.696 214.928 125.858 214.85 125.997C214.771 126.136 214.661 126.246 214.532 126.313C212.928 127.146 204.451 131.05 195.082 126.16C194.956 126.093 194.847 125.986 194.769 125.85C194.691 125.714 194.647 125.556 194.64 125.392L194.456 120.285C194.452 120.185 194.417 120.091 194.357 120.021C194.297 119.95 194.217 119.909 194.132 119.906C194.048 119.902 193.965 119.937 193.901 120.002C193.837 120.067 193.796 120.158 193.787 120.257L192.645 132.22C192.624 132.434 192.537 132.632 192.4 132.776C192.264 132.919 192.088 132.999 191.905 133Z" fill="#FF9863"/>
<path d="M215.322 219H215.317L193.283 218.838C193.122 218.837 192.968 218.768 192.849 218.644C192.729 218.52 192.653 218.35 192.634 218.165L190.417 196.32C190.404 196.179 190.347 196.049 190.257 195.953C190.167 195.857 190.05 195.802 189.928 195.797C188.179 195.731 184.017 195.269 183.154 192.413C182.386 189.869 184.487 186.116 189.399 181.26C189.482 181.177 189.582 181.119 189.69 181.093C189.797 181.067 189.909 181.072 190.014 181.108C190.12 181.145 190.215 181.211 190.293 181.301C190.37 181.392 190.427 181.503 190.458 181.626L193.008 191.825C193.039 191.947 193.103 192.055 193.191 192.132C193.278 192.209 193.385 192.251 193.495 192.253L214.388 192.415C214.497 192.417 214.604 192.377 214.692 192.302C214.781 192.228 214.846 192.122 214.879 192L217.716 181.534C217.747 181.417 217.803 181.311 217.877 181.224C217.952 181.137 218.043 181.073 218.144 181.036C218.244 180.999 218.351 180.99 218.455 181.011C218.559 181.032 218.657 181.082 218.741 181.156C220.677 182.871 226.913 188.756 225.887 192.52C225.349 194.492 222.924 195.591 218.68 195.787C218.558 195.792 218.442 195.847 218.352 195.943C218.263 196.039 218.206 196.169 218.192 196.31L215.974 218.326C215.956 218.512 215.879 218.683 215.759 218.807C215.638 218.932 215.483 219 215.322 219Z" fill="#FF9863"/>
<path d="M312 125.881C305.056 127.473 298.508 130.929 292.852 135.984C292.565 135.077 292.027 134.315 291.325 133.824C290.846 133.47 290.323 133.208 289.775 133.048C289.277 132.897 288.799 133.258 288.359 133.778C287.854 134.444 287.43 135.192 287.099 136C279.511 129.794 268 125.834 268 125.834V124.593C268.009 124.3 268.034 124.009 268.075 123.72C268.114 123.387 268.163 123.092 268.225 122.731C269.201 116.812 273.062 103.288 273.062 103.288H277.428L285.892 105.382L295.414 104.688L305.004 102.31L306.248 102C308.321 103.939 310.675 117.514 311.6 123.294C311.717 124.027 311.808 124.632 311.876 125.078C311.958 125.582 312 125.881 312 125.881Z" fill="white"/>
<path d="M285.776 184.104C285.776 184.104 283.713 184.701 280.515 194.732C277.316 204.764 276.183 217.725 276.183 217.725C276.183 217.725 274.385 221.251 282.061 221.487C282.061 221.487 281.444 223.816 285.776 223.459C290.107 223.101 289.484 223.105 289.484 223.105C289.484 223.105 292.268 221.074 293.507 221.432C294.745 221.789 295.518 221.911 296.858 223.223C298.198 224.535 302.481 224 302.532 222.987C302.567 222.489 302.567 221.989 302.532 221.491C302.532 221.491 309.082 221.97 307.844 216.475C306.606 210.98 305.575 201.962 305.575 201.962C305.575 201.962 302.224 184.347 298.405 184.107C294.586 183.868 285.776 184.104 285.776 184.104Z" fill="white"/>
<path d="M78 168C84.6274 168 90 161.508 90 153.5C90 145.492 84.6274 139 78 139C71.3726 139 66 145.492 66 153.5C66 161.508 71.3726 168 78 168Z" fill="#2F2E41"/>
<path d="M79 168C84.5228 168 89 162.627 89 156C89 149.373 84.5228 144 79 144C73.4771 144 69 149.373 69 156C69 162.627 73.4771 168 79 168Z" fill="#FFB8B8"/>
<path d="M116.753 191.347C116.595 191.536 116.45 191.739 116.319 191.955L96.2465 191.113L93.9507 186L87 189.106L90.3236 198.626C90.5921 199.395 91.0634 200.04 91.6668 200.464C92.2703 200.888 92.9732 201.068 93.6702 200.977L116.384 198.015C116.912 198.827 117.635 199.428 118.458 199.739C119.28 200.051 120.163 200.057 120.989 199.758C121.815 199.459 122.544 198.869 123.08 198.065C123.617 197.262 123.934 196.284 123.991 195.261C124.047 194.238 123.84 193.218 123.397 192.339C122.954 191.459 122.296 190.76 121.51 190.335C120.725 189.91 119.849 189.78 118.999 189.96C118.149 190.141 117.366 190.625 116.753 191.347H116.753Z" fill="#FFB8B8"/>
<path d="M84.361 193.796C84.1061 193.659 83.8788 193.459 83.6947 193.208C83.5106 192.957 83.374 192.662 83.2943 192.342L80.5076 181.176C79.9025 179.63 79.8357 177.86 80.3218 176.255C80.8079 174.65 81.8073 173.34 83.1008 172.614C84.3944 171.887 85.8765 171.802 87.2223 172.378C88.568 172.954 89.6676 174.144 90.2798 175.686L95.6778 185.438C95.8319 185.716 95.9339 186.031 95.9769 186.36C96.0198 186.69 96.0028 187.027 95.9269 187.348C95.8511 187.669 95.7181 187.967 95.5372 188.221C95.3562 188.475 95.1315 188.68 94.8783 188.821L85.9803 193.782C85.7271 193.923 85.4514 193.997 85.172 194C84.8925 194.002 84.6159 193.933 84.361 193.796Z" fill="#CCCCCC"/>
<path d="M103.806 305L108 302.197L101.19 281L95 285.137L103.806 305Z" fill="#FFB8B8"/>
<path d="M102 304.373L110.519 298.89L110.52 298.889C111.232 298.431 112.015 298.142 112.822 298.041C113.629 297.94 114.446 298.027 115.224 298.299C116.003 298.57 116.728 299.021 117.36 299.624C117.991 300.227 118.516 300.971 118.904 301.814L119 302.023L105.052 311L102 304.373Z" fill="#2F2E41"/>
<path d="M56.0012 305H60.7435L63 283L56 283L56.0012 305Z" fill="#FFB8B8"/>
<path d="M55 303.001L64.772 303H64.7724C65.5902 303 66.4001 303.2 67.1556 303.59C67.9112 303.979 68.5977 304.55 69.176 305.269C69.7543 305.989 70.213 306.843 70.526 307.783C70.8389 308.723 71 309.73 71 310.747V310.999L55.0003 311L55 303.001Z" fill="#2F2E41"/>
<path d="M86.5102 205.781L88.107 228.468L105.918 291.733C105.988 291.982 106.014 292.245 105.993 292.506C105.973 292.767 105.906 293.02 105.799 293.25C105.691 293.479 105.544 293.679 105.368 293.837C105.191 293.996 104.989 294.109 104.773 294.17L99.3142 295.709C98.9646 295.807 98.5972 295.763 98.2714 295.584C97.9455 295.405 97.6803 295.1 97.5185 294.721L74.7474 241.24C74.6731 241.066 74.5552 240.923 74.4096 240.832C74.2641 240.74 74.0982 240.704 73.9346 240.728C73.771 240.752 73.6178 240.836 73.4961 240.968C73.3744 241.1 73.29 241.273 73.2547 241.463L63.2336 295.515C63.1555 295.936 62.9584 296.312 62.6747 296.583C62.3911 296.853 62.038 297 61.674 297H56.5956C56.3841 297 56.1746 296.951 55.9795 296.854C55.7843 296.758 55.6073 296.616 55.4588 296.438C55.3103 296.259 55.1933 296.048 55.1145 295.815C55.0358 295.583 54.9969 295.334 55.0002 295.084C55.4656 257.605 53.9304 214.899 66.1517 208.144L68.1476 202L86.5102 205.781Z" fill="#2F2E41"/>
<path d="M67.251 203.52L65.1701 188.883C64.8256 186.482 65.0063 184.02 65.6953 181.722C66.3844 179.424 67.5598 177.365 69.113 175.735C70.6313 174.12 72.4746 172.976 74.4731 172.408C76.4717 171.839 78.561 171.866 80.5485 172.484C80.6664 172.52 80.7845 172.558 80.9028 172.597C83.3482 173.411 85.5199 175.079 87.1243 177.375C88.7288 179.671 89.6888 182.484 89.8746 185.435C90.2717 191.792 89.9164 201.014 85.9681 208.848L85.8914 209L67.251 203.52Z" fill="#CCCCCC"/>
<path d="M89 150.056C86.6561 151.838 83.8742 152.786 81.0276 152.773C82.043 153.549 83.199 154.074 84.4159 154.31C80.6311 155.205 76.7195 155.23 72.9258 154.381C72.0825 154.232 71.2689 153.924 70.5205 153.47C70.1475 153.241 69.8226 152.927 69.5668 152.55C69.311 152.173 69.1301 151.74 69.0358 151.281C68.7837 149.693 69.9059 148.25 71.072 147.278C72.8575 145.812 74.9162 144.802 77.0992 144.321C79.2821 143.84 81.5347 143.9 83.694 144.497C85.104 144.899 86.5165 145.578 87.4323 146.826C88.3481 148.075 88.6194 150 87.7468 151.285L89 150.056Z" fill="#2F2E41"/>
<path d="M77.8041 139.379C78.9619 133.936 74.8122 127.888 69.997 128.002C65.1116 128.116 61.5165 133.257 59.0453 138.165C56.574 143.073 54.1179 148.637 49.581 150.75C48.0797 151.45 46.4528 151.704 44.8462 151.491C43.2396 151.278 41.7035 150.604 40.3757 149.53C39.0478 148.455 37.9697 147.014 37.238 145.335C36.5062 143.656 36.1438 141.792 36.1831 139.91C35.574 145.873 36.4179 152.325 39.7206 156.937C43.0233 161.549 49.1687 163.628 53.5859 160.528C56.1087 158.758 57.7211 155.681 59.0505 152.62C60.3799 149.56 61.5628 146.333 63.5772 143.83C65.5915 141.328 68.7061 139.667 71.5094 140.72C72.6221 141.138 73.6204 141.953 74.7701 142.2C75.9197 142.448 77.3671 141.812 77.5242 140.463L77.8041 139.379Z" fill="#2F2E41"/>
<path d="M54.0127 238.171C53.6111 237.603 53.3176 236.935 53.1528 236.214C52.9881 235.494 52.9561 234.739 53.0591 234.002C53.1621 233.265 53.3976 232.564 53.749 231.949C54.1004 231.334 54.5592 230.82 55.0931 230.442L63.486 185L72 189.221L61.0728 232.562C61.5386 233.687 61.6465 234.98 61.3761 236.195C61.1056 237.41 60.4755 238.463 59.6053 239.154C58.7351 239.846 57.6851 240.128 56.6543 239.946C55.6236 239.765 54.6837 239.134 54.0127 238.171H54.0127Z" fill="#FFB8B8"/>
<path d="M60.2488 191.598C60.1126 191.315 60.03 191.001 60.0068 190.677C59.9835 190.353 60.0202 190.027 60.1141 189.722L63.394 179.044C63.6731 177.414 64.4921 175.98 65.6714 175.057C66.8507 174.134 68.294 173.797 69.6848 174.12C71.0756 174.443 72.3005 175.399 73.0908 176.78C73.8811 178.16 74.1724 179.852 73.9008 181.483L73.4025 192.855C73.3883 193.179 73.3146 193.496 73.1864 193.785C73.0582 194.073 72.8786 194.325 72.6598 194.524C72.4409 194.724 72.1881 194.865 71.9183 194.94C71.6486 195.014 71.3683 195.02 71.0966 194.956L61.5484 192.704C61.2767 192.64 61.0199 192.509 60.7956 192.318C60.5713 192.127 60.3848 191.881 60.2488 191.598Z" fill="#CCCCCC"/>
<path d="M130.579 186.03L130.434 186.007L130.978 181.4C131.062 180.693 130.901 179.976 130.53 179.407C130.159 178.838 129.61 178.464 129.002 178.367L120.614 177.025C120.006 176.928 119.39 177.116 118.901 177.547C118.412 177.978 118.091 178.618 118.007 179.325L115.022 204.6C114.938 205.307 115.099 206.024 115.47 206.593C115.841 207.162 116.39 207.536 116.998 207.633L125.386 208.975C125.994 209.072 126.61 208.884 127.099 208.453C127.588 208.022 127.909 207.382 127.993 206.675L130.047 189.286L130.191 189.309L130.579 186.03Z" fill="#3F3D56"/>
<path d="M128.595 180.295L127.564 180.129C127.595 180.273 127.596 180.424 127.566 180.568C127.536 180.712 127.476 180.845 127.392 180.956C127.307 181.067 127.201 181.151 127.082 181.203C126.963 181.254 126.835 181.27 126.709 181.25L122.184 180.522C122.058 180.502 121.939 180.445 121.836 180.359C121.733 180.272 121.65 180.156 121.595 180.023C121.539 179.89 121.512 179.743 121.516 179.594C121.521 179.446 121.556 179.301 121.62 179.173L120.656 179.018C120.445 178.984 120.229 178.999 120.023 179.062C119.816 179.125 119.622 179.236 119.452 179.387C119.282 179.538 119.138 179.727 119.031 179.943C118.923 180.159 118.852 180.397 118.823 180.645L116.015 204.559C115.986 204.806 115.999 205.058 116.053 205.3C116.107 205.542 116.201 205.769 116.331 205.969C116.46 206.168 116.621 206.336 116.805 206.462C116.99 206.588 117.194 206.671 117.405 206.705L125.344 207.982C125.771 208.051 126.204 207.918 126.548 207.613C126.892 207.308 127.118 206.855 127.177 206.355L129.985 182.441C130.044 181.941 129.93 181.434 129.669 181.031C129.409 180.629 129.022 180.364 128.595 180.295L128.595 180.295Z" fill="white"/>
<path d="M122.5 200C124.985 200 127 197.761 127 195C127 192.239 124.985 190 122.5 190C120.015 190 118 192.239 118 195C118 197.761 120.015 200 122.5 200Z" fill="#FF9863"/>
<path d="M122.567 197C122.463 197 122.362 196.962 122.279 196.891L122.274 196.887L121.19 195.94C121.139 195.896 121.097 195.842 121.065 195.779C121.033 195.717 121.013 195.648 121.004 195.576C120.996 195.505 121 195.432 121.016 195.362C121.033 195.292 121.061 195.227 121.099 195.169C121.138 195.112 121.186 195.064 121.241 195.028C121.296 194.992 121.356 194.968 121.419 194.959C121.482 194.949 121.546 194.954 121.607 194.973C121.668 194.992 121.725 195.024 121.775 195.068L122.477 195.682L124.136 193.215C124.175 193.158 124.223 193.11 124.278 193.074C124.332 193.038 124.393 193.014 124.455 193.005C124.518 192.995 124.582 193 124.643 193.019C124.704 193.037 124.761 193.069 124.811 193.113L124.801 193.129L124.812 193.114C124.913 193.202 124.979 193.333 124.996 193.478C125.013 193.622 124.978 193.768 124.901 193.884L122.95 196.786C122.904 196.853 122.846 196.907 122.78 196.944C122.714 196.981 122.64 197 122.567 197Z" fill="white"/>
<path d="M163.598 311H10.4021C10.2954 311 10.1932 310.947 10.1178 310.854C10.0424 310.76 10 310.633 10 310.5C10 310.367 10.0424 310.24 10.1178 310.146C10.1932 310.053 10.2954 310 10.4021 310H163.598C163.705 310 163.807 310.053 163.882 310.146C163.958 310.24 164 310.367 164 310.5C164 310.633 163.958 310.76 163.882 310.854C163.807 310.947 163.705 311 163.598 311Z" fill="#3F3D56"/>
</svg>