<svg width="257" height="285" viewBox="0 0 257 285" fill="none" xmlns="http://www.w3.org/2000/svg">
<path fill-rule="evenodd" clip-rule="evenodd" d="M97.4088 127.886C94.3803 130.749 93.2301 135.206 96.1161 138.644C98.8345 141.883 104.096 142.57 107.491 139.987C115.686 133.758 107.144 122.262 98.2989 124.641C96.6594 125.081 97.0697 127.381 98.6861 127.472C101.274 127.616 104.04 127.715 106.107 129.499C108.327 131.417 108.375 134.66 106.554 136.864C101.734 142.703 93.3592 134.105 98.4222 128.886C99.0618 128.227 98.0773 127.254 97.4088 127.886Z" fill="#7CABFF"/>
<path fill-rule="evenodd" clip-rule="evenodd" d="M182.573 138.22C183.655 142.358 184.844 146.45 186.079 150.541C186.378 151.526 187.281 151.834 188.101 151.259C191.324 149 194.552 146.779 197.604 144.278C198.191 143.797 198.064 142.828 197.482 142.416C193.906 139.884 189.076 136.147 184.538 136.12C183.385 136.114 182.577 137.789 183.747 138.485C185.581 139.574 187.773 139.963 189.729 140.802C191.988 141.77 194.223 142.905 196.215 144.375C196.262 143.696 196.305 143.015 196.35 142.336C192.935 144.507 189.723 146.936 186.475 149.358C187.115 149.489 187.754 149.623 188.393 149.754C187.008 145.714 185.586 141.7 184.051 137.717C183.726 136.878 182.342 137.338 182.573 138.22Z" fill="#3F3351"/>
<path fill-rule="evenodd" clip-rule="evenodd" d="M205.627 158.708C210.547 156.396 215.582 153.739 220.015 150.619C221.642 149.473 220.038 147.236 218.323 148.118C213.584 150.553 208.964 153.699 204.737 156.908C203.89 157.552 204.514 159.231 205.627 158.708Z" fill="#FF7643"/>
<path fill-rule="evenodd" clip-rule="evenodd" d="M23.5924 175.061C22.5666 169.946 21.2314 164.637 19.2852 159.771C18.5706 157.982 15.9617 158.91 16.3958 160.714C17.5889 165.694 19.5119 170.739 21.5964 175.438C22.0152 176.381 23.8249 176.219 23.5924 175.061Z" fill="#FF957E"/>
<path fill-rule="evenodd" clip-rule="evenodd" d="M39.8534 126.502L39.5418 126.228C38.1723 125.018 35.9267 124.781 34.594 126.228C33.2483 127.69 33.298 129.698 34.594 131.16C34.687 131.263 34.7779 131.365 34.8687 131.471C36.0954 132.849 38.6202 132.81 39.8534 131.471C41.0801 130.138 41.3289 127.802 39.8534 126.502Z" fill="#241352"/>
<path fill-rule="evenodd" clip-rule="evenodd" d="M169.834 266.066C169.834 266.066 117.997 278.073 97.1768 257.338L104.627 207.814C106.89 193.578 105.542 166.189 116.488 156.472C118.607 154.591 120.647 153.655 120.647 153.655C128.326 149.962 141.988 147.967 155.107 147.917C171.044 147.856 187.446 159.856 191.629 175.168L174.38 215.344L169.834 266.066Z" fill="#FF7081"/>
<path fill-rule="evenodd" clip-rule="evenodd" d="M165.596 181.298C165.596 181.298 188.846 225.736 177.303 228.101C139.321 235.886 117.277 242.27 117.277 242.27L115.341 256.903C115.907 259.115 192.181 257.204 201.215 247.036C207.594 239.857 216.074 223.266 198.033 187.358L192.552 175.143L165.596 181.298Z" fill="#FFAFA7"/>
<path fill-rule="evenodd" clip-rule="evenodd" d="M122.606 156.907L64.6324 179.09L62.8181 149.032L50.4064 144.287C50.4064 144.287 32.4086 192.534 54.9169 201.516C77.4252 210.501 102.786 193.901 102.786 193.901L122.606 156.907Z" fill="#FFAFA7"/>
<path fill-rule="evenodd" clip-rule="evenodd" d="M128.964 150.64C109.011 157.04 97.1119 164.54 69.0229 176.336L83.447 208.721L108.307 200.684L128.964 150.64Z" fill="#FF7081"/>
<path fill-rule="evenodd" clip-rule="evenodd" d="M162.573 174.604L177.078 208.721L209.793 202.674L187.753 164.252L161.659 174.604" fill="#FF7081"/>
<path fill-rule="evenodd" clip-rule="evenodd" d="M144.798 197.589C151.814 197.22 158.743 197.507 165.754 197.594C166.367 197.603 166.33 196.785 165.754 196.719C158.845 195.939 151.712 196.251 144.798 196.812C144.277 196.855 144.266 197.618 144.798 197.589Z" fill="#002C68"/>
<path fill-rule="evenodd" clip-rule="evenodd" d="M175.903 157.901C152.317 160.049 168.449 195.122 174.494 205.74C174.829 206.332 175.733 205.801 175.4 205.206C169.392 194.478 153.314 161.838 175.98 158.481C176.305 158.433 176.232 157.87 175.903 157.901Z" fill="#002C68"/>
<path fill-rule="evenodd" clip-rule="evenodd" d="M110.188 178.086C107.194 189.697 105.184 201.772 104.443 213.728C104.412 214.222 105.271 214.347 105.344 213.846C107.084 201.96 108.834 190.105 110.795 178.247C110.858 177.87 110.288 177.695 110.188 178.086Z" fill="#002C68"/>
<path fill-rule="evenodd" clip-rule="evenodd" d="M166.469 113.432C166.834 108.395 167.203 103.358 167.567 98.3211C171.541 97.2054 173.608 92.1414 172.021 88.3439C170.435 84.5464 165.934 82.4137 161.845 82.9957C164.424 81.2459 164.228 77.0675 162.111 74.7839C159.994 72.5004 156.678 71.7599 153.56 71.64C150.442 71.5201 147.287 71.8971 144.219 71.3306C141.502 70.8259 138.84 69.5865 136.099 69.9307C133.357 70.2768 130.735 73.3512 132.214 75.6772C128.259 75.0991 123.981 74.5732 120.467 76.4739C116.953 78.3745 115.189 83.7827 118.208 86.393C116.214 87.4062 115.715 90.2833 116.837 92.2149C117.958 94.1446 120.255 95.1597 122.487 95.3202C124.72 95.4787 126.936 94.9161 129.104 94.3573" fill="#241352"/>
<path fill-rule="evenodd" clip-rule="evenodd" d="M165.695 103.682L164.91 114.11C164.91 114.11 173.705 115.306 171.2 123.392C168.691 131.478 162.674 127.94 162.674 127.94C162.674 127.94 161.169 148.663 140.108 142.092C123.345 136.862 124.37 114.986 126.498 96.3357C127.323 89.1105 134.104 84.1421 141.187 85.5325L153.849 88.0186C161.169 89.4552 166.261 96.1894 165.695 103.682Z" fill="#FFAFA7"/>
<path fill-rule="evenodd" clip-rule="evenodd" d="M164.383 123.414L158.666 153.499C157.376 160.276 150.606 164.612 143.806 163.013C137.506 161.529 133.471 155.457 134.603 149.164L137.706 131.922L164.383 123.414Z" fill="#FFAFA7"/>
<path fill-rule="evenodd" clip-rule="evenodd" d="M140.75 123.495C140.784 123.483 140.846 123.936 140.234 124.249C139.6 124.547 138.581 123.898 138.319 122.833C137.98 121.807 138.031 120.564 138.085 119.288C138.153 117.931 138.223 116.548 138.294 115.095C138.65 109.147 139.153 104.341 139.426 104.357C139.694 104.376 139.628 109.211 139.276 115.16C139.174 116.609 139.08 117.994 138.986 119.35C138.878 120.638 138.778 121.761 138.984 122.626C139.132 123.499 139.739 123.928 140.133 123.862C140.536 123.791 140.683 123.44 140.75 123.495Z" fill="#241352"/>
<path fill-rule="evenodd" clip-rule="evenodd" d="M133.509 139.763C133.607 139.648 134.637 140.274 136.45 140.98C138.246 141.689 140.892 142.414 143.888 142.468C146.889 142.524 149.564 141.898 151.395 141.255C153.239 140.617 154.297 140.03 154.389 140.149C154.464 140.234 153.539 141.022 151.695 141.843C149.871 142.664 147.056 143.436 143.867 143.376C140.679 143.319 137.906 142.442 136.12 141.555C134.317 140.666 133.432 139.845 133.509 139.763Z" fill="#241352"/>
<path fill-rule="evenodd" clip-rule="evenodd" d="M138.064 127.765C138.186 127.672 138.67 128.086 139.592 128.446C140.493 128.812 141.917 129.082 143.325 128.686C144.732 128.281 145.712 127.329 146.204 126.569C146.714 125.8 146.833 125.216 146.995 125.23C147.116 125.228 147.27 125.874 146.867 126.845C146.487 127.792 145.411 129.046 143.644 129.558C141.867 130.053 140.168 129.587 139.234 129.013C138.266 128.432 137.963 127.827 138.064 127.765Z" fill="#241352"/>
<path fill-rule="evenodd" clip-rule="evenodd" d="M165.292 124.135C165.278 123.984 165.805 123.91 166.39 123.551C166.681 123.366 166.934 123.103 167.026 122.735C167.12 122.36 167.013 122.011 166.719 121.917C166.478 121.824 166.248 121.902 166.194 121.99L165.345 121.553C166.141 119.919 166.852 118.791 167.06 118.882C167.265 118.974 166.905 120.255 166.221 121.938L165.374 121.5C165.731 120.897 166.51 120.76 167.074 120.989C167.488 121.124 167.852 121.536 167.95 121.925C168.066 122.321 168.017 122.705 167.898 123.021C167.666 123.667 167.116 124.047 166.693 124.186C165.807 124.464 165.288 124.247 165.292 124.135Z" fill="#241352"/>
<path fill-rule="evenodd" clip-rule="evenodd" d="M148.95 104.082C148.861 103.848 149.794 103.298 150.973 103.648C152.155 103.991 152.724 104.982 152.544 105.139C152.369 105.324 151.686 104.821 150.757 104.563C149.839 104.278 149.02 104.34 148.95 104.082Z" fill="#241352"/>
<path fill-rule="evenodd" clip-rule="evenodd" d="M129.881 99.9791C129.764 99.754 130.789 99.0716 132.223 99.204C133.656 99.3257 134.548 100.179 134.396 100.378C134.251 100.605 133.317 100.237 132.142 100.146C130.967 100.028 129.985 100.228 129.881 99.9791Z" fill="#241352"/>
<path fill-rule="evenodd" clip-rule="evenodd" d="M164.354 114.683C158.466 108.835 156.736 99.0905 155.138 90.8749C149.687 94.9203 142.185 95.9146 135.899 93.4269C133.924 95.7898 131.607 97.8525 129.044 99.5272C128.315 100.003 127.45 100.467 126.622 100.212C125.634 99.9074 125.194 98.7532 124.959 97.7297C124.207 94.4524 124.18 90.9432 125.301 87.779C126.425 84.6128 128.775 81.8327 131.857 80.6181C135.149 79.3177 138.856 79.8831 142.273 80.7858C147.423 82.1466 152.387 84.2366 156.979 86.9757C161.484 89.6642 165.813 93.2222 167.722 98.1742C169.634 103.124 169.626 112.743 165.018 115.247" fill="#241352"/>
<path fill-rule="evenodd" clip-rule="evenodd" d="M150.654 111.616C150.392 111.6 150.23 110.976 150.288 110.224C150.348 109.473 150.608 108.878 150.868 108.894C151.129 108.911 151.293 109.535 151.231 110.287C151.173 111.037 150.913 111.633 150.654 111.616Z" fill="#241352"/>
<path fill-rule="evenodd" clip-rule="evenodd" d="M133.397 109.801C133.135 109.785 132.973 109.161 133.033 108.409C133.091 107.658 133.351 107.063 133.611 107.08C133.872 107.096 134.036 107.72 133.976 108.472C133.916 109.222 133.658 109.818 133.397 109.801Z" fill="#241352"/>
<path fill-rule="evenodd" clip-rule="evenodd" d="M49.0425 145.676C49.0425 145.676 51.6093 129.827 54.6776 129.998C57.7458 130.168 63.8784 129.998 63.8784 129.998C63.8784 129.998 64.3914 114.922 66.0962 117.32C67.7991 119.719 68.3352 140.002 61.7629 149.732L49.0425 145.676Z" fill="#FFAFA7"/>
<path fill-rule="evenodd" clip-rule="evenodd" d="M117.157 242.298C117.157 242.298 90.3 247.074 90.8272 250.616C91.3507 254.156 93.2375 257.726 93.2375 257.726L117.157 257.154V242.298Z" fill="#FFAFA7"/>
<path fill-rule="evenodd" clip-rule="evenodd" d="M147.128 258.354L146.919 254.564L90.2658 251.118L71.265 200.553L9.08203 203.953L30.297 258.634L147.128 258.354Z" fill="#6F35A5"/>
<path fill-rule="evenodd" clip-rule="evenodd" d="M43.6001 228.027C43.7388 230.529 45.8799 232.446 48.3858 232.309C50.8897 232.17 52.8085 230.031 52.668 227.528C52.5312 225.026 50.3901 223.109 47.8861 223.248C45.3803 223.386 43.4634 225.525 43.6001 228.027Z" fill="white"/>
<path fill-rule="evenodd" clip-rule="evenodd" d="M41.7867 228.128C41.9804 231.631 44.9795 234.315 48.4838 234.121C51.99 233.929 54.6738 230.933 54.4819 227.429C54.2901 223.926 51.291 221.242 47.7848 221.436C44.2786 221.627 41.593 224.624 41.7867 228.128Z" fill="white"/>
<mask id="mask0_223_2291" style="mask-type:alpha" maskUnits="userSpaceOnUse" x="0" y="256" width="257" height="29">
<path d="M0 256.76H257V284.951H0V256.76Z" fill="white"/>
</mask>
<g mask="url(#mask0_223_2291)">
<path fill-rule="evenodd" clip-rule="evenodd" d="M-0.000732422 259.712L242.783 256.76L257 264.033C257 264.033 70.623 313.862 -0.000732422 259.712Z" fill="#FDCDAA"/>
</g>
<path fill-rule="evenodd" clip-rule="evenodd" d="M143.524 22.7324C143.524 22.7324 131.192 23.3452 130.78 36.4102C130.78 36.4102 130.987 43.5546 134.892 46.2076C138.797 48.8605 138.59 51.7209 138.59 51.7209H148.866C148.866 51.7209 148.456 48.046 150.1 46.0039C151.744 43.9619 155.854 39.676 155.239 33.3481C154.622 27.0182 149.893 22.1196 143.524 22.7324Z" fill="#FFBC7A"/>
<path fill-rule="evenodd" clip-rule="evenodd" d="M138.461 55.0537C142.091 54.8904 145.764 55.277 149.372 55.0737C149.891 55.0429 150.069 54.2569 149.501 54.1426C145.994 53.4384 141.987 53.8286 138.461 54.2134C137.921 54.2715 137.893 55.0792 138.461 55.0537Z" fill="#6F35A5"/>
<path fill-rule="evenodd" clip-rule="evenodd" d="M140.303 58.6985C141.807 58.6168 143.32 58.5587 144.827 58.5732C146.327 58.5878 147.863 58.8201 149.353 58.7185C149.901 58.6803 150.07 57.9289 149.489 57.7873C146.605 57.0831 143.097 57.4897 140.183 57.8726C139.684 57.9398 139.8 58.7257 140.303 58.6985Z" fill="#6F35A5"/>
<path fill-rule="evenodd" clip-rule="evenodd" d="M141.166 60.135C142.367 60.2203 143.608 60.5688 144.804 60.5434C145.397 60.5289 145.505 59.6722 144.942 59.4907C143.779 59.115 142.371 59.2457 141.166 59.2947C140.635 59.3164 140.642 60.0969 141.166 60.135Z" fill="#6F35A5"/>
<path fill-rule="evenodd" clip-rule="evenodd" d="M141.779 51.1322C142.076 47.4351 140.793 43.3445 140.143 39.7164C139.769 39.87 139.397 40.0216 139.024 40.1752C139.563 41.0333 140.457 43.5095 141.831 43.4212C143.25 43.3291 143.778 40.8701 143.975 39.8681H142.752C143.026 41.0102 143.06 43.7648 144.906 43.5038C146.47 43.283 147.523 41.0294 148.002 39.7932C147.581 39.6799 147.156 39.5667 146.731 39.4534C145.786 43.07 145.333 47.6482 146.278 51.2916C146.448 51.9481 147.519 51.8175 147.5 51.1322C147.383 47.3007 146.831 43.5499 148.002 39.7932C148.255 38.987 147.033 38.701 146.731 39.4534C146.557 39.8796 145.547 42.306 144.59 41.9931C144.349 41.9144 144.031 39.751 143.975 39.5417C143.835 38.9755 142.864 38.9313 142.752 39.5417C142.613 40.2846 142.295 42.3079 141.394 41.7032C140.872 41.3538 140.411 40.108 140.081 39.5744C139.704 38.9639 138.86 39.3958 138.962 40.0332C139.553 43.6612 139.716 47.8881 141.216 51.282C141.346 51.5738 141.759 51.3895 141.779 51.1322Z" fill="#6F35A5"/>
<path fill-rule="evenodd" clip-rule="evenodd" d="M105.01 47.1628C110.771 45.605 116.718 44.2626 122.343 42.3777C122.792 42.2269 122.628 41.6472 122.14 41.7506C116.275 42.9879 110.518 44.8321 104.763 46.4051C104.2 46.5593 104.439 47.317 105.01 47.1628Z" fill="#FFBC7A"/>
<path fill-rule="evenodd" clip-rule="evenodd" d="M112.202 30.5689C115.781 30.5018 119.505 30.6905 123.057 30.2713C123.653 30.2005 123.681 29.4382 123.057 29.3964C119.488 29.1478 115.779 29.518 112.202 29.6251C111.546 29.6451 111.54 30.5816 112.202 30.5689Z" fill="#FFBC7A"/>
<path fill-rule="evenodd" clip-rule="evenodd" d="M128.792 24.5364C124.782 20.9762 120.956 16.5335 116.388 13.7162C115.673 13.2749 115.006 14.2553 115.526 14.8563C119.029 18.9036 123.944 21.9107 128.065 25.2772C128.572 25.6925 129.299 24.9856 128.792 24.5364Z" fill="#FFBC7A"/>
<path fill-rule="evenodd" clip-rule="evenodd" d="M138.044 19.6936C138.083 18.5099 137.228 17.3716 136.693 16.3862C136.061 15.2211 135.515 13.8701 134.645 12.895C134.204 12.4033 133.315 12.9053 133.541 13.5891C133.962 14.8637 134.831 15.9958 135.519 17.1258C136.099 18.0884 136.663 19.4333 137.665 19.927C137.839 20.0138 138.037 19.9126 138.044 19.6936Z" fill="#FFBC7A"/>
<mask id="mask1_223_2291" style="mask-type:alpha" maskUnits="userSpaceOnUse" x="144" y="0" width="3" height="19">
<path d="M144.186 0H146.003V18.0454H144.186V0Z" fill="white"/>
</mask>
<g mask="url(#mask1_223_2291)">
<path fill-rule="evenodd" clip-rule="evenodd" d="M145.795 17.5014C145.949 11.9706 146.138 6.12091 145.557 0.620242C145.469 -0.194226 144.449 -0.220305 144.39 0.620242C144.009 6.14298 144.416 11.9787 144.774 17.5014C144.819 18.2196 145.775 18.2336 145.795 17.5014Z" fill="#FFBC7A"/>
</g>
<path fill-rule="evenodd" clip-rule="evenodd" d="M151.622 19.7301C152.909 17.7704 154.25 15.8049 155.228 13.6567C155.574 12.899 154.614 12.3182 154.148 13.0009C152.824 14.9414 151.831 17.1184 150.817 19.2435C150.553 19.8013 151.282 20.2455 151.622 19.7301Z" fill="#FFBC7A"/>
<path fill-rule="evenodd" clip-rule="evenodd" d="M157.652 23.5517C160.236 22.4693 162.669 21.0623 165.127 19.7267C167.554 18.4098 170.272 17.2637 172.387 15.4778C172.817 15.112 172.358 14.3673 171.836 14.538C169.361 15.3409 167.122 16.9185 164.87 18.2016C162.322 19.6554 159.698 21.0342 157.306 22.7394C156.933 23.0058 157.148 23.7618 157.652 23.5517Z" fill="#FFBC7A"/>
<path fill-rule="evenodd" clip-rule="evenodd" d="M159.339 31.4552C161.495 32.1377 165.203 31.634 166.877 30.1806C167.459 29.6749 166.838 28.9328 166.145 29.0443C164.994 29.225 163.933 29.7749 162.786 30.0171C161.646 30.2575 160.479 30.2536 159.339 30.4651C158.749 30.5747 158.852 31.2995 159.339 31.4552Z" fill="#FFBC7A"/>
<path fill-rule="evenodd" clip-rule="evenodd" d="M161.19 40.9868C168.528 42.6272 176.099 44.5025 183.605 45.3624C184.512 45.4654 184.634 44.1967 183.816 43.9787C176.625 42.0664 168.904 41.0747 161.515 39.9327C160.756 39.8161 160.414 40.8128 161.19 40.9868Z" fill="#FFBC7A"/>
<path fill-rule="evenodd" clip-rule="evenodd" d="M54.6994 170.825C54.9504 169.182 54.9018 167.618 55.8359 166.168C57.6983 163.281 60.3411 164.008 62.9002 165.277C65.5079 166.571 67.9619 167.346 70.7974 166.138C75.2247 164.25 77.3012 157.672 73.0782 154.578C71.7101 153.576 70.3634 155.23 70.5463 156.497C70.8013 158.267 71.6926 160.212 70.1532 161.734C68.0962 163.768 65.6831 162.06 63.6299 161.148C61.4114 160.162 59.0547 159.946 56.7661 160.856C52.8272 162.426 49.9704 167.689 53.0997 171.241C53.5395 171.743 54.5923 171.517 54.6994 170.825Z" fill="#7E2E84"/>
<path fill-rule="evenodd" clip-rule="evenodd" d="M94.3523 221.127C99.8791 221.452 105.69 221.582 111.209 221.152C113.236 220.992 112.986 218.804 111.019 218.744C105.584 218.575 99.8889 218.951 94.503 219.523C93.4227 219.637 93.0998 221.053 94.3523 221.127Z" fill="#7E2E84"/>
<path fill-rule="evenodd" clip-rule="evenodd" d="M189.953 79.32C189.217 80.7562 191.623 117.859 191.623 117.859L209.786 116.341L207.668 126.137L216.543 116.068L234.314 114.004L233.235 78.0388L189.953 79.32Z" fill="#E6CCA9"/>
<path fill-rule="evenodd" clip-rule="evenodd" d="M199.803 95.6572L203.649 108.894L209.032 107.855L208.506 105.19L210.033 104.281L212.916 107.106L222.035 105.346L223.216 101.893L220.622 101.319L223.971 100.21L223.243 96.5121L220.346 96.7638L224.324 95.6899L223.42 91.1001L214.154 92.8888C214.154 92.8888 214.752 86.4758 212.016 84.3914L209.922 84.7967C209.922 84.7967 210.629 86.8101 210.563 88.0512C210.499 89.2923 208.677 95.0194 208.677 95.0194L205.832 96.3373L205.157 94.4699L199.803 95.6572Z" fill="white"/>
<path fill-rule="evenodd" clip-rule="evenodd" d="M12.7148 70.7787L15.8086 107.701H83.7647L87.5255 120.692L91.4933 106.445L104.443 105.693L98.4735 72.6224L12.7148 70.7787Z" fill="#E6CCA9"/>
<path fill-rule="evenodd" clip-rule="evenodd" d="M21.4312 84.2425C44.7025 83.3568 67.8912 83.4162 91.1049 85.2961C91.9333 85.3623 91.9371 84.2068 91.1049 84.1509C67.9181 82.595 44.6545 82.0029 21.4312 83.2482C20.7123 83.2873 20.7027 84.2696 21.4312 84.2425Z" fill="white"/>
<path fill-rule="evenodd" clip-rule="evenodd" d="M23.2476 92.4101C46.5176 91.5245 69.7089 91.5839 92.9213 93.4637C93.7497 93.5299 93.7535 92.3745 92.9213 92.3168C69.7358 90.7627 46.4715 90.1706 23.2476 91.4159C22.5287 91.4549 22.5191 92.4373 23.2476 92.4101Z" fill="white"/>
<path fill-rule="evenodd" clip-rule="evenodd" d="M23.2515 98.1663C38.9707 98.6672 54.5083 97.5891 70.2121 98.9086C71.0453 98.9794 71.0511 97.7379 70.2121 97.6835C54.5257 96.6762 38.9572 97.3205 23.2515 97.1027C22.5207 97.0918 22.5246 98.1427 23.2515 98.1663Z" fill="white"/>
</svg>